<?xml version="1.0" standalone="no"?>
<!DOCTYPE svg PUBLIC "-//W3C//DTD SVG 20010904//EN"
 "http://www.w3.org/TR/2001/REC-SVG-20010904/DTD/svg10.dtd">
<svg version="1.0" xmlns="http://www.w3.org/2000/svg"
 width="80.000000pt" height="80.000000pt" viewBox="0 0 80.000000 80.000000"
 preserveAspectRatio="xMidYMid meet">
<metadata>
Created by potrace 1.16, written by Peter Selinger 2001-2019
</metadata>
<g transform="translate(0.000000,80.000000) scale(0.100000,-0.100000)"
fill="RGBA(119,124,120,255)" stroke="none">
<path d="M298 788 c-21 -6 -38 -14 -38 -20 0 -5 -6 -6 -12 -2 -7 4 -10 4 -6
-1 4 -4 2 -15 -4 -24 -7 -9 -1 -7 12 5 47 39 55 36 13 -5 -23 -23 -40 -41 -37
-41 12 0 64 35 64 42 0 4 11 2 25 -4 20 -9 23 -13 12 -20 -8 -4 -18 -22 -21
-40 -4 -18 -22 -58 -41 -88 -38 -59 -49 -104 -14 -57 11 15 25 25 29 22 5 -3
12 0 16 6 4 8 3 9 -4 5 -7 -4 -12 -3 -12 2 0 12 25 33 32 27 3 -3 11 2 19 12
9 11 10 14 2 9 -16 -9 -16 2 -2 43 13 38 35 51 84 51 55 0 39 23 -25 35 -59
12 -75 30 -38 44 20 9 20 10 3 9 -11 0 -37 -5 -57 -10z"/>
<path d="M478 783 c7 -3 16 -2 19 1 4 3 -2 6 -13 5 -11 0 -14 -3 -6 -6z"/>
<path d="M165 721 c-3 -5 -2 -12 3 -15 5 -3 9 1 9 9 0 17 -3 19 -12 6z"/>
<path d="M500 722 c0 -5 21 -28 47 -52 46 -43 46 -43 10 -5 -41 45 -46 58 -19
48 9 -3 14 -3 11 1 -9 10 -49 16 -49 8z"/>
<path d="M635 711 c-6 -5 -19 -11 -30 -14 -15 -4 -13 -5 8 -6 15 -1 27 4 27
12 0 8 3 7 10 -3 6 -9 5 -17 -3 -22 -9 -6 -8 -8 2 -8 10 0 11 -3 2 -13 -13
-16 -5 -28 14 -20 8 2 11 12 8 21 -4 12 2 10 20 -7 42 -38 32 -10 -11 32 -23
23 -42 34 -47 28z"/>
<path d="M130 695 c-9 -10 -9 -15 -1 -15 6 0 11 5 11 11 0 5 5 7 12 3 7 -4 8
-3 4 4 -9 15 -11 15 -26 -3z"/>
<path d="M388 693 c7 -3 16 -2 19 1 4 3 -2 6 -13 5 -11 0 -14 -3 -6 -6z"/>
<path d="M170 680 c0 -5 -10 -11 -22 -13 -18 -3 -16 -5 7 -5 40 -2 65 13 36
21 -12 3 -21 1 -21 -3z"/>
<path d="M231 634 c0 -11 3 -14 6 -6 3 7 2 16 -1 19 -3 4 -6 -2 -5 -13z"/>
<path d="M446 641 c-3 -5 2 -15 12 -22 15 -12 16 -12 5 2 -7 9 -10 19 -6 22 3
4 4 7 0 7 -3 0 -8 -4 -11 -9z"/>
<path d="M75 630 c-3 -6 1 -7 10 -4 11 5 14 2 9 -12 -6 -15 -4 -16 6 -7 7 6 9
16 6 22 -9 14 -23 14 -31 1z"/>
<path d="M690 619 c0 -5 -4 -7 -10 -4 -6 4 -7 -2 -1 -17 5 -13 17 -23 27 -23
19 0 44 -17 44 -30 0 -3 -5 -3 -12 1 -7 4 -8 3 -4 -4 10 -16 23 -15 30 3 7 20
-4 46 -17 38 -6 -4 -8 0 -4 10 3 9 1 20 -6 24 -20 12 -47 14 -47 2z"/>
<path d="M585 570 c21 -22 41 -40 44 -40 3 0 -13 18 -34 40 -21 22 -41 40 -44
40 -3 0 13 -18 34 -40z"/>
<path d="M175 570 c-3 -5 -1 -10 4 -10 6 0 11 5 11 10 0 6 -2 10 -4 10 -3 0
-8 -4 -11 -10z"/>
<path d="M600 525 c19 -19 36 -35 39 -35 3 0 -10 16 -29 35 -19 19 -36 35 -39
35 -3 0 10 -16 29 -35z"/>
<path d="M296 542 c-3 -5 1 -9 9 -9 8 0 12 4 9 9 -3 4 -7 8 -9 8 -2 0 -6 -4
-9 -8z"/>
<path d="M21 514 c0 -11 3 -14 6 -6 3 7 2 16 -1 19 -3 4 -6 -2 -5 -13z"/>
<path d="M360 500 c14 -10 33 -21 43 -24 15 -4 16 -2 6 10 -6 8 -14 12 -17 10
-2 -3 -11 1 -19 9 -8 8 -20 15 -26 15 -7 0 -1 -9 13 -20z"/>
<path d="M548 463 c13 -24 28 -41 33 -37 5 3 9 7 9 10 0 3 -5 2 -12 -2 -8 -5
-9 -2 -5 10 5 11 3 15 -5 10 -8 -5 -9 -2 -5 10 4 10 3 15 -3 11 -9 -5 -14 6
-12 26 1 3 -5 6 -12 6 -9 0 -5 -14 12 -44z"/>
<path d="M655 501 c-3 -5 -2 -12 3 -15 5 -3 9 1 9 9 0 17 -3 19 -12 6z"/>
<path d="M10 478 c0 -8 7 -15 15 -15 18 0 15 19 -3 25 -7 2 -12 -3 -12 -10z"/>
<path d="M785 437 c-4 -29 -2 -68 3 -87 9 -30 10 -23 11 53 1 48 -1 87 -3 87
-3 0 -8 -24 -11 -53z"/>
<path d="M741 440 c-6 -21 -21 -46 -34 -55 -12 -8 -16 -15 -9 -15 25 0 62 48
62 80 0 40 -4 38 -19 -10z"/>
<path d="M1 434 c0 -11 3 -14 6 -6 3 7 2 16 -1 19 -3 4 -6 -2 -5 -13z"/>
<path d="M41 420 c14 -31 19 -36 19 -24 0 6 -7 19 -16 30 -14 18 -14 18 -3 -6z"/>
<path d="M501 438 c2 -2 16 -13 30 -26 21 -18 29 -21 35 -10 4 7 4 10 0 6 -5
-4 -17 2 -29 13 -11 10 -25 19 -31 19 -5 0 -7 -1 -5 -2z"/>
<path d="M142 410 c0 -14 2 -19 5 -12 2 6 2 18 0 25 -3 6 -5 1 -5 -13z"/>
<path d="M376 418 c7 -11 35 -10 53 1 10 6 3 9 -22 8 -20 0 -34 -5 -31 -9z"/>
<path d="M161 394 c0 -11 3 -14 6 -6 3 7 2 16 -1 19 -3 4 -6 -2 -5 -13z"/>
<path d="M428 399 c-10 -5 -18 -20 -17 -32 0 -15 2 -17 6 -7 3 8 12 23 21 33
17 19 15 21 -10 6z"/>
<path d="M370 387 c23 -19 15 -104 -11 -112 -10 -4 -19 -10 -19 -15 0 -4 11
-3 24 3 41 19 43 138 2 137 -6 -1 -5 -6 4 -13z"/>
<path d="M52 355 c0 -16 2 -22 5 -12 2 9 2 23 0 30 -3 6 -5 -1 -5 -18z"/>
<path d="M494 357 c3 -10 6 -25 6 -33 0 -8 4 -14 10 -14 5 0 7 8 4 18 -5 13
-4 14 4 3 8 -10 14 -11 33 -1 22 12 22 13 4 26 -12 9 -22 10 -30 4 -7 -6 -16
-5 -25 3 -10 10 -12 9 -6 -6z"/>
<path d="M457 343 c5 -12 3 -14 -8 -8 -8 5 -5 -2 6 -15 l20 -23 -22 7 c-14 5
-23 3 -23 -3 0 -12 30 -14 45 -3 18 13 15 37 -5 50 -16 10 -18 9 -13 -5z"/>
<path d="M675 332 c4 -8 11 -26 15 -40 7 -22 8 -23 9 -6 1 11 -6 29 -15 40 -8
10 -12 13 -9 6z"/>
<path d="M630 326 c0 -2 8 -10 18 -17 15 -13 16 -12 3 4 -13 16 -21 21 -21 13z"/>
<path d="M72 300 c0 -14 2 -19 5 -12 2 6 2 18 0 25 -3 6 -5 1 -5 -13z"/>
<path d="M535 310 c-3 -6 1 -7 9 -4 18 7 21 14 7 14 -6 0 -13 -4 -16 -10z"/>
<path d="M16 291 c13 -49 33 -87 56 -106 l23 -20 -17 20 c-10 12 -29 45 -43
75 -14 30 -22 44 -19 31z"/>
<path d="M100 264 c0 -40 33 -137 38 -108 3 20 6 20 49 9 37 -10 56 -9 92 2
75 22 65 26 -64 24 -59 -1 -82 13 -100 66 l-14 38 -1 -31z"/>
<path d="M142 270 c0 -14 2 -19 5 -12 2 6 2 18 0 25 -3 6 -5 1 -5 -13z"/>
<path d="M661 274 c0 -11 3 -14 6 -6 3 7 2 16 -1 19 -3 4 -6 -2 -5 -13z"/>
<path d="M640 260 c0 -5 -11 -12 -25 -16 -20 -5 -23 -9 -14 -20 12 -15 33 -9
24 7 -6 8 8 13 27 10 4 0 5 6 2 14 -7 17 -14 20 -14 5z"/>
<path d="M305 249 c-4 -6 -5 -12 -2 -15 2 -3 7 2 10 11 7 17 1 20 -8 4z"/>
<path d="M716 214 c-36 -45 -114 -81 -212 -96 -41 -6 -74 -15 -74 -19 0 -13
49 -19 76 -9 15 6 29 8 31 6 9 -9 -72 -38 -140 -49 -68 -12 -69 -12 -48 -31
31 -28 150 -19 227 19 61 30 134 89 134 109 0 6 9 19 20 29 13 11 20 27 18 47
-1 17 -2 30 -3 30 0 0 -13 -16 -29 -36z m-81 -84 c-3 -5 -11 -10 -16 -10 -6 0
-7 5 -4 10 3 6 11 10 16 10 6 0 7 -4 4 -10z m-55 -24 c0 -2 -7 -7 -16 -10 -8
-3 -12 -2 -9 4 6 10 25 14 25 6z m-210 -86 c0 -5 -2 -10 -4 -10 -3 0 -8 5 -11
10 -3 6 -1 10 4 10 6 0 11 -4 11 -10z"/>
<path d="M340 231 c0 -6 -7 -11 -17 -11 -9 0 -14 -2 -11 -5 2 -3 31 -1 64 4
36 5 47 9 27 10 -17 0 -38 4 -47 7 -9 3 -16 1 -16 -5z"/>
<path d="M478 233 c7 -3 16 -2 19 1 4 3 -2 6 -13 5 -11 0 -14 -3 -6 -6z"/>
<path d="M248 223 c7 -3 16 -2 19 1 4 3 -2 6 -13 5 -11 0 -14 -3 -6 -6z"/>
<path d="M453 213 c9 -2 23 -2 30 0 6 3 -1 5 -18 5 -16 0 -22 -2 -12 -5z"/>
<path d="M470 160 c8 -5 20 -10 25 -10 6 0 3 5 -5 10 -8 5 -19 10 -25 10 -5 0
-3 -5 5 -10z"/>
<path d="M440 150 c8 -5 20 -10 25 -10 6 0 3 5 -5 10 -8 5 -19 10 -25 10 -5 0
-3 -5 5 -10z"/>
<path d="M400 140 c8 -5 20 -10 25 -10 6 0 3 5 -5 10 -8 5 -19 10 -25 10 -5 0
-3 -5 5 -10z"/>
<path d="M336 126 c3 -8 12 -12 20 -9 17 6 9 23 -11 23 -8 0 -12 -6 -9 -14z"/>
<path d="M275 119 c-11 -16 -1 -19 13 -3 7 8 8 14 3 14 -5 0 -13 -5 -16 -11z"/>
<path d="M145 89 c10 -15 43 -30 49 -21 3 4 -8 13 -25 19 -16 6 -27 7 -24 2z"/>
<path d="M390 73 c-24 -13 -23 -13 15 -7 48 8 51 10 28 16 -10 2 -29 -2 -43
-9z"/>
<path d="M206 61 c-4 -5 3 -15 15 -21 28 -15 34 -7 10 14 -12 11 -21 13 -25 7z"/>
</g>
<g transform="translate(0.000000,80.000000) scale(0.100000,-0.100000)"
fill="RGBA(12,12,13,255)" stroke="none">
<path d="M350 760 c8 -5 22 -9 30 -9 10 0 8 3 -5 9 -27 12 -43 12 -25 0z"/>
<path d="M494 704 c51 -39 57 -60 8 -25 -17 12 -34 21 -39 21 -4 0 -1 -5 7
-11 12 -9 11 -10 -5 -6 -11 3 -29 8 -40 11 -11 4 -4 -2 15 -13 40 -23 54 -26
44 -9 -4 7 -3 8 5 4 6 -4 9 -11 6 -16 -3 -4 10 -18 28 -29 19 -11 57 -45 85
-75 29 -30 52 -53 52 -50 0 2 -18 33 -41 69 -39 62 -140 165 -161 165 -6 0 10
-16 36 -36z"/>
<path d="M178 653 c7 -3 16 -2 19 1 4 3 -2 6 -13 5 -11 0 -14 -3 -6 -6z"/>
<path d="M113 643 c9 -2 25 -2 35 0 9 3 1 5 -18 5 -19 0 -27 -2 -17 -5z"/>
<path d="M503 568 c31 -41 73 -110 93 -154 20 -43 45 -90 55 -103 11 -13 19
-32 19 -43 0 -27 -108 -93 -194 -119 -107 -32 -118 -38 -76 -38 48 -1 144 15
209 36 38 12 66 29 95 60 45 48 60 54 51 21 -5 -18 -4 -20 4 -8 13 19 14 60 2
60 -5 0 -24 -18 -41 -40 -18 -23 -51 -50 -74 -61 l-41 -21 30 27 c17 15 30 30
31 33 0 4 6 20 13 36 10 24 8 33 -9 60 -21 33 -80 154 -80 164 0 4 14 -10 31
-31 17 -21 34 -36 37 -32 3 3 14 -3 24 -12 24 -21 37 -9 64 62 l19 50 6 -103
c4 -57 9 -105 11 -107 3 -3 3 45 2 106 -4 149 -14 157 -58 47 -18 -47 -38 -48
-65 -5 -29 47 -137 145 -200 182 -7 4 12 -26 42 -67z"/>
<path d="M144 508 c-10 -18 -18 -49 -20 -68 -1 -19 -5 -64 -8 -100 -3 -45 -2
-54 3 -30 8 33 8 32 10 -18 1 -41 6 -58 25 -77 21 -21 30 -23 82 -18 33 2 84
0 114 -5 39 -7 46 -10 23 -11 -17 0 -40 -4 -50 -8 -16 -6 -15 -8 7 -14 23 -6
22 -7 -8 -8 -39 -1 -72 -17 -72 -34 1 -7 14 -27 30 -46 16 -19 28 -37 25 -39
-2 -2 -29 10 -60 28 -31 18 -59 29 -62 26 -4 -3 -2 -6 4 -6 5 0 30 -14 56 -31
25 -16 60 -34 77 -39 35 -10 35 -10 -22 58 -40 47 -36 60 20 67 63 8 209 52
252 77 19 10 26 16 15 12 -11 -5 -108 -9 -215 -10 -162 -1 -198 1 -212 14 -15
12 -18 32 -18 111 0 53 6 120 14 149 7 29 12 52 10 52 -2 0 -11 -15 -20 -32z"/>
<path d="M215 460 c-6 -20 -8 -20 -20 -4 -13 18 -11 25 -31 -116 -3 -24 7 -8
30 50 19 46 33 86 31 88 -2 2 -6 -6 -10 -18z"/>
<path d="M100 403 c-6 -21 -13 -67 -15 -103 l-4 -65 8 60 c4 33 13 77 20 98 7
21 11 41 8 44 -3 3 -11 -12 -17 -34z"/>
<path d="M476 392 c-5 -9 41 -39 48 -31 2 2 -6 12 -19 22 -13 9 -26 13 -29 9z"/>
<path d="M465 350 c3 -5 10 -10 16 -10 5 0 9 5 9 10 0 6 -7 10 -16 10 -8 0
-12 -4 -9 -10z"/>
<path d="M716 352 c-2 -4 -1 -23 2 -41 6 -29 9 -32 20 -18 8 9 10 26 6 41 -6
26 -18 33 -28 18z"/>
<path d="M102 185 c2 -13 -2 -19 -12 -17 -10 1 -8 -3 5 -13 18 -14 20 -14 23
-1 2 9 -2 23 -8 33 -10 17 -10 17 -8 -2z"/>
<path d="M170 140 c0 -5 5 -10 11 -10 5 0 7 5 4 10 -3 6 -8 10 -11 10 -2 0 -4
-4 -4 -10z"/>
</g>
<g transform="translate(0.000000,80.000000) scale(0.100000,-0.100000)"
fill="RGBA(246,248,250,255)" stroke="none">
<path d="M387 786 c-31 -14 -26 -26 10 -26 13 0 40 -7 61 -17 20 -9 43 -15 50
-14 6 1 20 -3 30 -8 16 -10 15 -10 -3 -11 -16 0 -14 -6 17 -37 40 -42 118
-160 118 -178 0 -7 -35 22 -77 65 -75 74 -161 130 -201 130 -22 0 -36 -15 -47
-49 -4 -13 -28 -50 -53 -82 -27 -36 -62 -101 -88 -166 l-44 -108 0 55 c0 59
26 174 56 252 10 26 16 50 13 53 -3 3 -34 2 -69 -2 -49 -5 -69 -12 -85 -29
-27 -29 -56 -115 -44 -128 13 -14 11 -26 -2 -24 -17 4 -31 -51 -25 -99 7 -52
56 -162 81 -183 17 -14 18 -13 11 5 -27 73 -29 102 -11 176 17 74 58 166 90
204 l17 20 -7 -20 c-37 -104 -51 -220 -38 -295 l9 -45 94 -1 c52 0 85 1 73 3
-34 6 -28 21 17 39 39 16 40 18 40 63 0 26 -5 52 -12 59 -8 8 -8 12 -1 12 22
0 31 -26 26 -76 -5 -44 -9 -52 -36 -64 -28 -12 -29 -14 -11 -21 10 -4 35 -9
54 -10 34 -2 34 -2 -10 -10 -31 -5 -19 -6 40 -3 111 6 186 21 207 42 13 13 15
14 12 2 -7 -21 -161 -97 -233 -114 -34 -8 -50 -15 -36 -15 40 -1 182 52 233
88 54 37 58 57 24 104 -13 18 -31 53 -41 79 -20 53 -75 142 -129 206 -21 24
-37 46 -37 48 0 24 181 -126 224 -185 21 -28 41 -51 45 -51 13 0 50 110 40
116 -5 3 -9 13 -9 24 0 13 -5 17 -20 13 -15 -4 -22 2 -30 23 -6 15 -18 33 -27
39 -12 9 -13 14 -3 20 10 6 9 9 -1 16 -10 6 -10 9 -2 9 21 0 3 27 -35 54 -28
19 -179 70 -194 65 -2 0 -15 -6 -31 -13z m253 -86 c0 -5 -12 -10 -27 -9 l-28
1 25 8 c14 4 26 8 28 9 1 1 2 -3 2 -9z m-538 -92 c-7 -7 -12 -8 -12 -2 0 14
12 26 19 19 2 -3 -1 -11 -7 -17z m212 -66 c3 -5 -1 -9 -9 -9 -8 0 -12 4 -9 9
3 4 7 8 9 8 2 0 6 -4 9 -8z m74 -42 c17 -11 32 -22 32 -24 0 -9 -36 6 -60 24
-33 26 -14 25 28 0z m177 -50 c40 -79 32 -89 -30 -40 -41 32 -40 40 1 14 36
-24 40 -11 11 41 -14 25 -22 43 -16 40 5 -4 21 -28 34 -55z m-505 -53 c0 -12
0 -11 -24 28 l-17 30 20 -24 c12 -13 21 -28 21 -34z m369 22 c-18 -11 -46 -12
-53 -1 -3 4 11 9 31 9 25 1 32 -2 22 -8z m9 -26 c-9 -10 -18 -25 -21 -33 -4
-10 -6 -8 -6 7 -1 12 7 27 17 32 25 15 27 13 10 -6z m78 -12 c13 -10 20 -21
16 -25 -3 -4 1 -4 10 -1 9 4 19 1 23 -5 4 -6 -16 -20 -50 -35 -59 -27 -85 -31
-85 -15 0 6 8 10 18 10 14 0 15 2 2 10 -12 8 -13 12 -2 19 8 4 14 12 15 17 1
5 8 8 16 7 9 -1 10 2 2 10 -29 29 -1 36 35 8z m-447 -49 c1 -7 -3 -10 -9 -7
-5 3 -10 18 -9 33 0 24 1 25 9 7 5 -11 9 -26 9 -33z m491 -16 c0 -2 -7 -7 -16
-10 -8 -3 -12 -2 -9 4 6 10 25 14 25 6z m-63 -82 c-3 -3 -12 -4 -19 -1 -8 3
-5 6 6 6 11 1 17 -2 13 -5z"/>
<path d="M220 750 c-19 -11 -46 -28 -60 -40 l-25 -20 42 16 c23 9 52 27 64 40
27 29 25 29 -21 4z"/>
<path d="M670 663 c0 -14 15 -29 35 -37 17 -6 17 -4 -4 18 -26 28 -31 31 -31
19z"/>
<path d="M293 123 c-21 -8 -15 -27 17 -58 29 -28 30 -28 92 -17 63 10 144 39
135 48 -2 2 -16 0 -31 -6 -29 -11 -76 -4 -76 11 0 5 -20 9 -45 9 -25 0 -45 5
-45 10 0 10 -26 12 -47 3z m155 -48 c-2 -1 -21 -5 -43 -9 -38 -6 -39 -6 -15 7
14 7 33 11 43 9 10 -3 16 -6 15 -7z"/>
<path d="M555 100 c-3 -6 1 -7 9 -4 18 7 21 14 7 14 -6 0 -13 -4 -16 -10z"/>
</g>
<g transform="translate(0.000000,80.000000) scale(0.100000,-0.100000)"
fill="RGBA(62,55,58,255)" stroke="none">
<path d="M352 789 c-24 -9 -26 -31 -4 -35 10 -2 10 -1 1 3 -7 3 2 13 22 24 35
19 22 25 -19 8z"/>
<path d="M266 755 c-13 -14 -28 -25 -35 -25 -6 0 -11 -4 -11 -10 0 -18 16 -10
50 25 19 19 31 35 26 35 -4 0 -17 -11 -30 -25z"/>
<path d="M395 750 c3 -5 11 -10 16 -10 6 0 7 5 4 10 -3 6 -11 10 -16 10 -6 0
-7 -4 -4 -10z"/>
<path d="M290 742 c0 -13 -59 -44 -71 -36 -6 3 -15 0 -20 -7 -6 -10 -9 -11 -9
-1 0 9 -12 6 -40 -8 -48 -24 -51 -36 -10 -42 35 -5 41 8 8 15 l-23 4 23 2 c12
0 22 5 22 10 0 11 38 2 46 -10 3 -5 -3 -6 -12 -2 -12 4 -15 3 -10 -6 5 -7 17
-11 27 -8 25 7 24 -4 -5 -77 -37 -93 -37 -99 -16 -126 15 -18 18 -20 13 -6 -5
14 -3 17 7 11 9 -6 11 -4 5 5 -4 7 -4 15 1 19 21 14 116 155 117 172 1 11 4
19 7 19 4 0 7 7 7 15 0 24 -15 7 -28 -32 -13 -41 -92 -148 -98 -132 -1 6 13
36 32 67 20 32 39 71 42 87 4 17 14 35 21 41 11 9 9 13 -11 22 -14 6 -25 8
-25 4z"/>
<path d="M444 732 c6 -19 4 -22 -21 -23 -25 0 -23 -2 17 -19 25 -10 44 -24 42
-30 -1 -6 2 -9 8 -5 6 3 8 11 5 16 -4 5 -2 9 4 9 5 0 13 -4 16 -10 3 -5 12
-10 18 -10 7 0 -1 13 -18 27 -16 15 -29 31 -27 36 1 4 -2 6 -7 3 -5 -4 -17 2
-27 11 -16 16 -16 16 -10 -5z m41 -42 c3 -6 -1 -7 -9 -4 -18 7 -21 14 -7 14 6
0 13 -4 16 -10z"/>
<path d="M370 699 c0 -5 5 -7 10 -4 6 3 10 8 10 11 0 2 -4 4 -10 4 -5 0 -10
-5 -10 -11z"/>
<path d="M660 636 c0 -2 7 -7 16 -10 8 -3 12 -2 9 4 -6 10 -25 14 -25 6z"/>
<path d="M635 531 c-3 -5 -2 -12 3 -15 5 -3 9 1 9 9 0 17 -3 19 -12 6z"/>
<path d="M761 500 c-2 -8 -2 -29 -1 -47 2 -33 -35 -83 -61 -83 -6 0 -3 8 8 18
10 9 13 13 6 8 -9 -6 -22 -1 -40 15 -14 13 -23 17 -19 9 4 -8 -9 3 -28 24 -20
22 -36 35 -35 30 1 -25 66 -139 79 -139 19 0 40 -57 23 -62 -7 -3 -13 -10 -13
-16 0 -6 -8 -19 -17 -30 -13 -15 -14 -18 -3 -13 8 5 -1 -6 -20 -24 l-35 -32
45 23 c25 12 47 22 50 21 11 -1 29 21 24 30 -6 10 23 48 38 48 4 0 8 -8 8 -17
0 -9 3 -14 6 -10 9 9 11 106 2 101 -4 -3 -9 33 -11 78 -1 46 -4 76 -6 68z
m-17 -166 c4 -15 2 -32 -6 -41 -11 -14 -14 -11 -20 18 -3 18 -4 37 -2 41 10
15 22 8 28 -18z"/>
<path d="M115 440 c8 -12 -5 -61 -15 -55 -4 2 -5 -7 -2 -22 3 -14 1 -23 -4
-20 -5 3 -9 -21 -9 -54 0 -32 3 -59 6 -59 4 0 11 37 18 83 6 45 14 94 17 110
4 17 2 27 -5 27 -7 0 -10 -4 -6 -10z"/>
<path d="M570 409 c0 -5 -6 -7 -12 -3 -9 5 -9 3 1 -9 15 -19 33 -13 24 8 -6
17 -13 20 -13 4z"/>
<path d="M161 364 c0 -11 3 -14 6 -6 3 7 2 16 -1 19 -3 4 -6 -2 -5 -13z"/>
<path d="M470 370 c-9 -6 -10 -10 -3 -10 6 0 15 5 18 10 8 12 4 12 -15 0z"/>
<path d="M118 301 c-4 -27 -2 -53 4 -65 13 -23 38 -45 53 -46 5 0 -1 7 -13 16
-14 9 -21 22 -18 31 3 8 2 11 -4 8 -5 -3 -10 18 -12 47 l-3 53 -7 -44z"/>
<path d="M485 320 c-3 -5 -1 -10 4 -10 6 0 11 5 11 10 0 6 -2 10 -4 10 -3 0
-8 -4 -11 -10z"/>
<path d="M670 325 c0 -5 5 -17 10 -25 5 -8 10 -10 10 -5 0 6 -5 17 -10 25 -5
8 -10 11 -10 5z"/>
<path d="M317 253 c-11 -11 -8 -23 6 -23 8 0 14 7 14 15 0 16 -9 19 -20 8z"/>
<path d="M750 241 c0 -6 4 -13 10 -16 6 -3 7 1 4 9 -7 18 -14 21 -14 7z"/>
<path d="M560 226 c0 -2 7 -7 16 -10 8 -3 12 -2 9 4 -6 10 -25 14 -25 6z"/>
<path d="M95 210 c-3 -5 -1 -10 4 -10 6 0 11 5 11 10 0 6 -2 10 -4 10 -3 0 -8
-4 -11 -10z"/>
<path d="M498 213 c7 -3 16 -2 19 1 4 3 -2 6 -13 5 -11 0 -14 -3 -6 -6z"/>
<path d="M223 193 c9 -2 23 -2 30 0 6 3 -1 5 -18 5 -16 0 -22 -2 -12 -5z"/>
<path d="M300 191 l35 -7 -45 -14 c-50 -14 -87 -15 -125 0 -22 8 -25 7 -25
-13 0 -18 -2 -19 -10 -7 -6 9 -10 11 -10 3 0 -7 -7 -10 -17 -7 -11 3 -4 -7 15
-25 18 -18 37 -29 42 -26 6 4 10 1 10 -5 0 -6 4 -8 10 -5 9 6 70 -21 70 -31 0
-3 -4 -2 -10 1 -16 10 -11 -1 7 -16 14 -12 16 -12 8 0 -6 11 -4 13 8 8 49 -20
52 -20 40 -6 -22 23 -14 33 10 13 20 -18 20 -17 -2 8 -13 15 -28 26 -33 25 -6
-1 -15 6 -21 16 -16 24 13 47 62 48 32 1 33 2 11 8 -22 6 -23 8 -7 14 10 4 33
8 50 8 27 1 25 3 -13 10 -25 4 -56 7 -70 7 -18 0 -15 -3 10 -7z m-115 -51 c3
-5 1 -10 -4 -10 -6 0 -11 5 -11 10 0 6 2 10 4 10 3 0 8 -4 11 -10z"/>
<path d="M99 173 c-13 -16 -12 -17 4 -4 9 7 17 15 17 17 0 8 -8 3 -21 -13z"/>
<path d="M715 159 c-4 -6 -5 -12 -2 -15 2 -3 7 2 10 11 7 17 1 20 -8 4z"/>
<path d="M360 120 c-8 -5 -10 -10 -5 -10 6 0 17 5 25 10 8 5 11 10 5 10 -5 0
-17 -5 -25 -10z"/>
<path d="M468 113 c7 -3 16 -2 19 1 4 3 -2 6 -13 5 -11 0 -14 -3 -6 -6z"/>
<path d="M333 23 c4 -6 1 -14 -5 -17 -7 -2 -3 -4 9 -2 12 1 26 6 30 12 5 5 4
6 -1 2 -5 -4 -16 -2 -24 5 -11 8 -14 8 -9 0z"/>
</g>
</svg>
