<?xml version="1.0" standalone="no"?>
<!DOCTYPE svg PUBLIC "-//W3C//DTD SVG 20010904//EN"
 "http://www.w3.org/TR/2001/REC-SVG-20010904/DTD/svg10.dtd">
<svg version="1.0" xmlns="http://www.w3.org/2000/svg"
 width="300.000000pt" height="300.000000pt" viewBox="0 0 300.000000 300.000000"
 preserveAspectRatio="xMidYMid meet">
<metadata>
Created by potrace 1.16, written by Peter Selinger 2001-2019
</metadata>
<g transform="translate(0.000000,300.000000) scale(0.100000,-0.100000)"
fill="RGBA(102,145,192,255)" stroke="none">
<path d="M340 2471 l-31 -31 6 -767 c6 -683 9 -772 24 -803 23 -49 58 -63 123
-52 55 10 811 7 860 -3 14 -4 29 -13 32 -22 8 -19 -18 -62 -42 -70 -9 -3 -37
-15 -61 -26 -35 -16 -40 -22 -27 -29 11 -6 14 -14 7 -26 -18 -37 -21 -87 -7
-117 8 -16 17 -37 19 -46 3 -8 23 -21 46 -28 32 -9 45 -20 59 -49 l17 -37 220
2 c159 1 232 5 261 15 23 8 49 11 60 7 33 -13 69 -10 112 11 26 13 61 20 97
20 36 0 71 -7 97 -20 23 -11 61 -20 84 -20 55 0 72 -19 56 -64 -14 -39 -15
-115 -2 -136 8 -12 10 -12 10 -1 0 10 3 11 14 2 8 -7 31 -11 53 -10 29 2 44
10 63 33 14 17 19 26 11 22 -10 -6 -12 -5 -7 2 4 7 13 12 19 12 7 0 20 9 30
20 9 11 22 20 29 20 7 0 33 30 57 66 24 36 59 76 76 90 18 13 40 40 51 59 10
20 28 38 39 40 70 14 101 19 112 18 8 0 11 29 11 98 0 55 0 99 -1 100 -1 0
-24 3 -52 5 -37 4 -56 12 -73 30 -12 14 -20 28 -18 32 6 11 -17 27 -44 29 -55
6 -109 34 -131 69 -12 19 -32 42 -46 51 -14 9 -36 34 -50 56 -21 33 -23 44
-14 64 8 17 11 227 11 688 l0 664 -24 28 -24 28 -1041 3 -1041 4 -30 -31z
m1889 5 c195 -4 216 -6 234 -24 18 -19 19 -39 18 -683 l-2 -664 -24 -51 c-17
-34 -25 -68 -25 -103 0 -42 -5 -57 -25 -77 l-25 -25 -1002 6 c-881 4 -1004 7
-1018 20 -13 14 -16 100 -21 653 -8 882 -8 907 14 929 17 17 67 18 815 23 438
3 808 4 822 3 14 -1 121 -5 239 -7z"/>
<path d="M1929 2371 c-22 -18 -24 -27 -24 -118 -1 -131 1 -124 -45 -182 -63
-80 -100 -64 -100 43 0 43 -5 61 -20 76 -25 25 -61 26 -91 1 -23 -18 -24 -26
-24 -129 0 -100 -2 -113 -23 -139 -46 -57 -54 -73 -59 -112 -8 -61 4 -106 42
-151 44 -52 47 -96 9 -131 -68 -63 -72 -146 -11 -245 25 -40 37 -71 37 -95 0
-91 32 -138 84 -125 49 12 56 30 56 141 0 116 6 139 52 196 57 71 98 41 98
-71 0 -52 21 -80 59 -80 62 0 81 45 74 172 -5 77 -3 85 21 118 14 19 33 45 42
58 22 30 30 112 14 143 -8 13 -27 41 -43 61 -34 43 -39 85 -13 120 9 13 28 39
42 58 38 52 31 119 -20 194 -32 45 -40 67 -45 122 -5 48 -13 70 -26 80 -26 19
-59 17 -86 -5z m82 -17 c7 -9 16 -44 20 -78 5 -49 14 -74 43 -115 30 -45 36
-62 36 -107 0 -47 -4 -58 -40 -99 -45 -52 -52 -92 -22 -136 58 -87 62 -96 62
-140 0 -33 -7 -56 -25 -80 -13 -19 -32 -45 -42 -58 -14 -20 -17 -42 -15 -124
3 -117 -9 -147 -58 -147 -37 0 -50 23 -50 92 0 114 -44 137 -110 58 -59 -71
-70 -107 -63 -207 7 -93 -9 -133 -50 -133 -40 0 -50 16 -58 89 -6 56 -15 83
-43 129 -48 77 -50 145 -7 194 63 73 64 95 11 174 -35 51 -40 66 -40 114 0 48
5 61 35 99 44 56 49 75 42 167 -9 102 8 143 60 144 35 0 53 -37 53 -106 0 -47
4 -65 19 -78 29 -26 49 -17 100 48 l46 58 2 97 c1 53 2 104 2 113 2 42 65 64
92 32z"/>
<path d="M1843 1833 c-11 -10 -37 -39 -57 -64 -28 -36 -36 -55 -36 -87 0 -55
32 -86 67 -64 6 4 32 34 57 66 52 67 60 112 26 146 -24 24 -32 25 -57 3z m55
-54 c2 -29 -4 -44 -39 -87 -44 -53 -67 -63 -89 -37 -18 22 -4 62 42 117 50 60
81 63 86 7z"/>
<path d="M1105 1991 c-33 -4 -74 -14 -92 -24 -17 -9 -57 -26 -87 -38 -69 -25
-104 -66 -153 -174 -33 -73 -37 -91 -44 -210 -8 -129 -8 -130 19 -175 14 -25
38 -70 53 -101 26 -54 81 -109 109 -109 7 0 47 -18 88 -41 85 -47 103 -47 178
1 37 23 60 30 97 30 63 0 93 29 131 127 33 84 30 130 -11 163 -42 33 -81 26
-122 -21 -138 -157 -148 -160 -234 -70 -31 32 -59 70 -62 84 -4 14 -5 73 -3
130 l3 104 39 48 c43 51 90 85 120 85 11 0 50 -32 91 -75 48 -50 80 -75 94
-75 30 0 78 52 92 101 11 36 10 44 -18 96 -26 50 -40 64 -100 99 -80 48 -105
54 -188 45z m175 -57 c56 -29 72 -44 94 -83 31 -58 32 -85 6 -128 -42 -70 -71
-65 -158 28 -48 53 -58 59 -94 59 -34 0 -47 -7 -95 -52 -78 -75 -83 -88 -83
-221 0 -109 1 -116 28 -153 38 -52 96 -102 128 -110 37 -9 66 7 115 67 75 89
86 99 118 99 20 0 36 -9 51 -27 26 -33 24 -68 -10 -156 -25 -68 -63 -97 -123
-97 -22 0 -65 -13 -101 -30 -40 -19 -70 -28 -82 -24 -55 20 -192 89 -213 108
-12 11 -44 62 -69 111 l-45 90 2 119 c2 111 5 126 38 209 21 53 49 102 67 120
17 17 72 48 121 68 76 32 102 38 164 39 65 0 81 -4 141 -36z"/>
</g>
<g transform="translate(0.000000,300.000000) scale(0.100000,-0.100000)"
fill="RGBA(240,246,243,255)" stroke="none">
<path d="M1168 2480 c-748 -5 -798 -6 -815 -23 -22 -22 -22 -47 -14 -929 5
-553 8 -639 21 -653 14 -13 137 -16 1018 -20 l1002 -6 25 25 c20 20 25 35 25
77 0 35 8 69 25 103 l24 51 2 664 c1 644 0 664 -18 683 -18 18 -39 20 -234 24
-118 2 -225 6 -239 7 -14 1 -384 0 -822 -3z m847 -104 c13 -10 21 -32 26 -80
5 -55 13 -77 45 -122 51 -75 58 -142 20 -194 -14 -19 -33 -45 -42 -58 -26 -35
-21 -77 13 -120 16 -20 35 -48 43 -61 16 -31 8 -113 -14 -143 -9 -13 -28 -39
-42 -58 -24 -33 -26 -41 -21 -118 7 -127 -12 -172 -74 -172 -38 0 -59 28 -59
80 0 112 -41 142 -98 71 -46 -57 -52 -80 -52 -196 0 -111 -7 -129 -56 -141
-52 -13 -84 34 -84 125 0 24 -12 55 -37 95 -61 99 -57 182 11 245 38 35 35 79
-9 131 -38 45 -50 90 -42 151 5 39 13 55 59 112 21 26 23 39 23 139 0 103 1
111 24 129 30 25 66 24 91 -1 15 -15 20 -33 20 -76 0 -107 37 -123 100 -43 46
58 44 51 45 182 0 91 2 100 24 118 27 22 60 24 86 5z m-722 -430 c60 -35 74
-49 100 -99 28 -52 29 -60 18 -96 -14 -49 -62 -101 -92 -101 -14 0 -46 25 -94
75 -41 43 -80 75 -91 75 -30 0 -77 -34 -120 -85 l-39 -48 -3 -104 c-2 -57 -1
-116 3 -130 3 -14 31 -52 62 -84 86 -90 96 -87 234 70 41 47 80 54 122 21 41
-33 44 -79 11 -163 -38 -98 -68 -127 -131 -127 -37 0 -60 -7 -97 -30 -75 -48
-93 -48 -178 -1 -41 23 -81 41 -88 41 -28 0 -83 55 -109 109 -15 31 -39 76
-53 101 -27 45 -27 46 -19 175 7 119 11 137 44 210 49 108 84 149 153 174 30
12 70 29 87 38 35 19 135 33 181 25 16 -2 61 -23 99 -46z"/>
<path d="M1812 1772 c-46 -55 -60 -95 -42 -117 22 -26 45 -16 89 37 35 43 41
58 39 87 -5 56 -36 53 -86 -7z"/>
</g>
<g transform="translate(0.000000,300.000000) scale(0.100000,-0.100000)"
fill="RGBA(41,118,41,255)" stroke="none">
<path d="M2616 2354 c-3 -9 -6 -27 -6 -41 0 -14 -9 -40 -19 -57 -25 -41 -41
-260 -50 -696 -6 -325 0 -488 19 -500 11 -7 136 -3 158 5 9 3 12 126 11 572
-1 312 -3 560 -6 551 -2 -10 -9 -18 -14 -18 -5 0 -9 -8 -10 -17 -1 -12 -4 -10
-9 7 -5 17 -8 19 -9 8 -1 -10 -5 -18 -11 -18 -20 0 -30 42 -30 124 0 80 -10
115 -24 80z"/>
<path d="M1957 2324 c-4 -4 -4 -44 -1 -89 9 -111 0 -148 -45 -198 -21 -23 -46
-56 -55 -74 -21 -42 -30 -46 -71 -33 -55 18 -80 62 -80 140 0 51 -3 65 -15 65
-11 0 -14 -10 -12 -40 10 -146 -2 -201 -52 -247 -25 -23 -31 -36 -31 -71 0
-34 8 -52 43 -95 63 -80 59 -132 -14 -215 -45 -50 -44 -79 8 -156 36 -54 41
-69 42 -119 1 -44 5 -57 17 -60 24 -4 31 24 18 72 -21 77 2 177 51 221 12 11
33 41 46 67 l24 47 -35 11 c-44 15 -95 72 -95 108 0 51 22 104 56 138 18 19
43 52 54 74 22 44 42 50 89 26 40 -21 61 -59 61 -110 0 -57 -11 -87 -49 -125
-26 -27 -71 -99 -71 -115 0 -2 16 -10 35 -16 33 -11 75 -54 88 -91 3 -9 2 -33
-3 -54 -9 -42 -4 -65 15 -65 21 0 26 29 14 74 -21 77 6 192 50 216 11 5 24 25
30 43 14 43 3 74 -44 130 -31 35 -35 47 -35 94 0 49 4 57 42 99 57 62 57 96 0
179 -33 49 -41 71 -44 115 -3 49 -15 70 -31 54z"/>
<path d="M93 1870 c0 -30 2 -43 4 -27 2 15 2 39 0 55 -2 15 -4 2 -4 -28z"/>
<path d="M1000 1897 c-60 -17 -83 -29 -117 -63 -53 -53 -62 -85 -74 -269 -10
-144 -10 -152 11 -209 35 -93 83 -137 189 -175 l90 -32 54 25 c36 18 71 26
105 26 61 0 74 14 92 103 23 113 -6 115 -109 7 -72 -76 -78 -80 -118 -80 -38
0 -50 7 -123 71 -71 63 -82 77 -96 127 -13 42 -15 76 -10 141 8 103 32 158 84
197 20 15 51 39 67 54 61 56 117 47 193 -29 70 -70 112 -67 112 9 -1 49 -26
76 -94 100 -74 25 -157 24 -256 -3z"/>
<path d="M92 1143 l3 -588 517 -2 c349 -2 518 0 518 7 0 6 -7 13 -15 16 -8 4
-13 9 -10 14 2 4 -7 13 -20 20 -14 7 -25 17 -25 22 0 4 -7 8 -16 8 -8 0 -12 5
-9 10 3 6 3 10 -2 10 -4 0 -82 16 -173 36 -173 38 -246 43 -483 35 -60 -2
-113 1 -118 6 -5 5 -4 38 3 78 6 42 8 118 4 190 -17 320 -25 414 -40 459 -8
27 -18 92 -22 143 -8 111 -24 106 -24 -8 0 -61 -3 -76 -15 -76 -8 0 -15 7 -15
14 0 8 -5 11 -11 7 -20 -12 -29 19 -29 104 0 49 -4 82 -10 82 -7 0 -10 -192
-8 -587z"/>
<path d="M130 1643 c0 -28 3 -34 10 -23 13 20 13 60 0 60 -5 0 -10 -17 -10
-37z"/>
<path d="M2679 943 c-46 -15 -46 -15 -40 -65 1 -6 93 -38 110 -38 3 0 -3 6
-13 13 -16 11 -18 22 -12 60 4 26 6 47 4 46 -2 0 -24 -7 -49 -16z"/>
<path d="M2779 802 c5 -10 18 -25 28 -33 17 -13 17 -13 1 7 -10 11 -18 26 -18
32 0 7 -5 12 -10 12 -7 0 -7 -6 -1 -18z"/>
<path d="M2785 532 c-16 -11 -47 -63 -42 -69 8 -7 47 16 47 29 0 6 7 20 17 30
13 14 13 18 2 18 -8 0 -19 -4 -24 -8z"/>
<path d="M2704 436 c-11 -8 -33 -31 -49 -51 l-27 -37 31 17 c18 9 35 24 38 33
3 9 13 25 21 35 18 21 13 22 -14 3z"/>
<path d="M2016 400 c-41 -21 -77 -24 -111 -11 -11 5 -29 4 -40 -2 -11 -6 -58
-14 -105 -18 -55 -5 -1 -6 153 -4 132 2 282 1 334 -2 84 -5 96 -8 103 -27 9
-21 9 -21 9 0 1 30 -18 44 -64 44 -23 0 -60 9 -83 20 -54 26 -143 26 -196 0z"/>
<path d="M2593 297 c-4 -8 -15 -17 -23 -20 -13 -5 -12 -6 1 -6 18 -1 45 26 36
35 -3 3 -9 -1 -14 -9z"/>
<path d="M2513 240 c-13 -5 -23 -12 -23 -15 0 -4 6 -3 13 1 6 4 1 -5 -12 -19
-28 -31 -26 -38 7 -26 12 5 22 17 22 27 0 10 5 23 12 30 14 14 11 14 -19 2z"/>
</g>
<g transform="translate(0.000000,300.000000) scale(0.100000,-0.100000)"
fill="RGBA(89,162,88,255)" stroke="none">
<path d="M105 2711 c3 -5 0 -13 -5 -16 -13 -8 -11 -965 2 -965 4 0 8 -37 8
-82 0 -85 9 -116 29 -104 6 4 11 1 11 -7 0 -7 7 -14 15 -14 12 0 15 15 15 76
0 114 16 119 24 8 4 -51 14 -116 22 -143 15 -45 23 -139 40 -459 4 -72 2 -148
-4 -190 -7 -40 -8 -73 -3 -78 5 -5 58 -8 118 -6 237 8 310 3 483 -35 91 -20
169 -36 173 -36 5 0 5 -5 2 -10 -3 -6 1 -10 9 -10 9 0 16 -4 16 -8 0 -5 11
-15 25 -22 14 -7 23 -15 21 -18 -12 -11 38 -42 69 -42 32 0 35 3 41 38 4 20
11 45 15 54 7 12 4 20 -7 26 -13 7 -8 13 27 29 24 11 52 23 61 26 24 8 50 51
42 70 -3 9 -18 18 -32 22 -49 10 -805 13 -860 3 -65 -11 -100 3 -123 52 -15
31 -18 120 -24 803 l-6 767 31 31 30 31 1041 -4 1041 -3 24 -28 24 -28 0 -664
c0 -461 -3 -671 -11 -688 -9 -20 -7 -31 14 -64 14 -22 36 -47 50 -56 14 -9 35
-32 47 -51 25 -42 39 -46 36 -12 -3 21 4 26 43 39 l46 14 3 55 3 55 -53 -7
c-54 -7 -116 -6 -124 3 -22 21 -18 640 5 987 10 141 16 181 32 206 10 17 19
43 19 57 0 34 10 58 21 51 5 -3 9 -43 9 -90 0 -82 10 -124 30 -124 6 0 10 8
11 18 1 11 4 9 9 -8 5 -15 8 -18 9 -8 1 9 7 18 14 20 9 4 12 67 12 274 l0 269
-1313 3 c-812 1 -1311 -1 -1307 -7z m45 -1053 c0 -13 -5 -30 -10 -38 -7 -11
-10 -5 -10 23 0 20 5 37 10 37 6 0 10 -10 10 -22z"/>
<path d="M1936 2354 c-9 -8 -16 -23 -17 -32 0 -9 -1 -60 -2 -113 l-2 -97 -46
-58 c-51 -65 -71 -74 -100 -48 -15 13 -19 31 -19 78 0 69 -18 106 -53 106 -52
-1 -69 -42 -60 -144 7 -92 2 -111 -42 -167 -30 -38 -35 -51 -35 -99 0 -48 5
-63 40 -114 53 -79 52 -101 -11 -174 -43 -49 -41 -117 7 -194 28 -46 37 -73
43 -129 8 -73 18 -89 58 -89 41 0 57 40 50 133 -7 100 4 136 63 207 66 79 110
56 110 -58 0 -69 13 -92 50 -92 49 0 61 30 58 147 -2 82 1 104 15 124 10 13
29 39 42 58 18 24 25 47 25 80 0 44 -4 53 -62 140 -30 44 -23 84 22 136 36 41
40 52 40 99 0 45 -6 62 -36 107 -29 41 -38 66 -43 115 -4 34 -13 69 -20 78
-17 20 -55 21 -75 0z m52 -84 c3 -44 11 -66 44 -115 57 -83 57 -117 0 -179
-38 -42 -42 -50 -42 -99 0 -47 4 -59 35 -94 47 -56 58 -87 44 -130 -6 -18 -19
-38 -30 -43 -44 -24 -71 -139 -50 -216 12 -45 7 -74 -14 -74 -19 0 -24 23 -15
65 5 21 6 45 3 54 -13 37 -55 80 -88 91 -19 6 -35 14 -35 16 0 16 45 88 71
115 38 38 49 68 49 125 0 51 -21 89 -61 110 -47 24 -67 18 -89 -26 -11 -22
-36 -55 -54 -74 -34 -34 -56 -87 -56 -138 0 -36 51 -93 95 -108 l35 -11 -24
-47 c-13 -26 -34 -56 -46 -67 -49 -44 -72 -144 -51 -221 13 -48 6 -76 -18 -72
-12 3 -16 16 -17 60 -1 50 -6 65 -42 119 -52 77 -53 106 -8 156 73 83 77 135
14 215 -35 43 -43 61 -43 95 0 35 6 48 31 71 50 46 62 101 52 247 -2 30 1 40
12 40 12 0 15 -14 15 -65 0 -78 25 -122 80 -140 41 -13 50 -9 71 33 9 18 34
51 55 74 45 50 54 87 45 198 -3 45 -3 85 1 89 16 16 28 -5 31 -54z m-88 -440
c34 -34 26 -79 -26 -146 -25 -32 -51 -62 -57 -66 -35 -22 -67 9 -67 64 0 32 8
51 36 87 42 52 72 81 85 81 5 0 18 -9 29 -20z"/>
<path d="M975 1931 c-49 -20 -104 -51 -121 -68 -18 -18 -46 -67 -67 -120 -33
-83 -36 -98 -38 -209 l-2 -119 45 -90 c25 -49 57 -100 69 -111 21 -19 158 -88
213 -108 12 -4 42 5 82 24 36 17 79 30 101 30 60 0 98 29 123 97 34 88 36 123
10 156 -15 18 -31 27 -51 27 -32 0 -43 -10 -118 -99 -49 -60 -78 -76 -115 -67
-32 8 -90 58 -128 110 -27 37 -28 44 -28 153 0 133 5 146 83 221 48 45 61 52
95 52 36 0 46 -6 94 -59 87 -93 116 -98 158 -28 26 43 25 70 -6 128 -22 39
-38 54 -94 83 -60 32 -76 36 -141 36 -62 -1 -88 -7 -164 -39z m281 -31 c68
-24 93 -51 94 -100 0 -76 -42 -79 -112 -9 -76 76 -132 85 -193 29 -16 -15 -47
-39 -67 -54 -52 -39 -76 -94 -84 -197 -5 -65 -3 -99 10 -141 14 -50 25 -64 96
-127 73 -64 85 -71 123 -71 40 0 46 4 118 80 103 108 132 106 109 -7 -18 -89
-31 -103 -92 -103 -34 0 -69 -8 -105 -26 l-54 -25 -90 32 c-106 38 -154 82
-189 175 -21 57 -21 65 -11 209 12 184 21 216 74 269 76 76 253 107 373 66z"/>
</g>
</svg>
