<?xml version="1.0" standalone="no"?>
<!DOCTYPE svg PUBLIC "-//W3C//DTD SVG 20010904//EN"
 "http://www.w3.org/TR/2001/REC-SVG-20010904/DTD/svg10.dtd">
<svg version="1.0" xmlns="http://www.w3.org/2000/svg"
 width="247.000000pt" height="219.000000pt" viewBox="0 0 247.000000 219.000000"
 preserveAspectRatio="xMidYMid meet">
<metadata>
Created by potrace 1.16, written by Peter Selinger 2001-2019
</metadata>
<g transform="translate(0.000000,219.000000) scale(0.100000,-0.100000)"
fill="RGBA(0,0,0,255)" stroke="none">
<path d="M1383 2128 c-15 -10 -38 -18 -50 -18 -37 0 -53 -26 -53 -86 0 -30 -4
-54 -10 -54 -5 0 -10 4 -10 9 0 4 -17 11 -37 14 -29 5 -42 2 -58 -13 -14 -13
-43 -21 -94 -26 -67 -6 -75 -9 -90 -35 -10 -18 -27 -30 -49 -34 -18 -3 -43
-17 -54 -31 -12 -13 -32 -24 -45 -24 -13 0 -45 -15 -71 -33 -53 -37 -123 -63
-146 -54 -24 10 -44 -2 -50 -29 -4 -13 -11 -24 -16 -24 -5 0 -19 -10 -30 -22
-12 -13 -27 -23 -34 -23 -14 0 -86 -72 -86 -86 0 -4 -9 -10 -19 -14 -18 -5
-35 -51 -25 -67 3 -4 23 -13 45 -19 60 -18 65 -31 29 -72 -16 -19 -30 -39 -30
-45 0 -5 -11 -17 -25 -26 -30 -20 -32 -37 -5 -61 27 -24 26 -32 -14 -98 -71
-118 -68 -161 14 -205 40 -21 54 -23 126 -19 70 5 84 3 98 -12 9 -10 16 -27
16 -39 0 -27 -47 -82 -71 -82 -13 0 -19 -7 -19 -24 0 -13 -9 -35 -21 -50 l-20
-26 20 -26 c28 -35 26 -52 -4 -64 -14 -5 -25 -16 -25 -23 0 -8 -23 -46 -51
-86 -48 -69 -50 -73 -35 -96 8 -12 35 -39 60 -60 28 -23 43 -42 39 -51 -8 -21
25 -54 54 -54 16 0 23 -6 23 -20 0 -27 24 -35 61 -20 43 18 106 16 129 -5 16
-15 30 -16 96 -10 l76 7 -7 -30 c-6 -27 -3 -33 24 -46 16 -9 32 -24 36 -35 15
-48 167 -41 234 11 13 10 32 18 42 18 24 0 42 34 49 95 5 45 8 51 45 72 49 28
47 28 75 3 32 -28 43 -25 38 11 -4 23 1 34 20 50 14 10 33 19 44 19 10 0 21 8
25 18 12 32 25 43 39 32 9 -8 25 -8 56 2 24 7 49 12 57 11 30 -3 61 17 61 38
0 19 4 21 39 16 31 -4 44 -1 57 14 21 23 57 25 74 4 14 -17 53 -20 81 -5 14 8
19 21 19 51 0 50 21 101 65 154 31 38 33 45 25 81 -5 21 -11 93 -13 158 -3
101 -7 121 -22 132 -11 8 -15 14 -11 14 5 0 2 7 -5 16 -11 14 -10 19 10 35 12
10 39 21 59 24 76 13 78 20 27 71 -27 26 -35 43 -35 70 0 20 7 42 15 50 8 9
15 24 15 35 0 11 -7 36 -15 56 -8 19 -15 59 -15 89 0 29 -5 65 -10 79 -7 18
-7 33 1 46 8 16 7 23 -7 33 -10 8 -14 18 -9 26 8 13 12 149 4 151 -2 0 -16 -2
-32 -6 -35 -9 -57 9 -57 46 0 31 -30 69 -54 69 -8 0 -23 14 -33 30 -9 17 -22
30 -27 30 -5 0 -20 10 -33 22 -16 15 -38 22 -71 24 -27 1 -68 11 -91 22 -23
12 -68 24 -99 28 -31 3 -61 10 -67 14 -20 16 -133 8 -162 -12z m162 2 c6 -4
36 -11 67 -14 31 -4 76 -16 99 -28 23 -11 63 -21 89 -22 49 -2 104 -37 136
-83 8 -13 21 -23 29 -23 22 0 45 -29 45 -59 0 -41 34 -68 68 -55 l27 10 -2
-65 c0 -36 -4 -73 -7 -82 -4 -9 0 -21 8 -28 12 -10 13 -18 5 -32 -5 -11 -7
-25 -3 -31 5 -7 11 -46 15 -88 4 -41 13 -94 20 -117 11 -37 11 -44 -4 -61 -10
-10 -17 -35 -17 -56 0 -29 8 -44 35 -72 42 -41 44 -54 10 -54 -33 0 -86 -22
-104 -43 -11 -14 -11 -20 -1 -32 7 -8 9 -15 4 -15 -5 0 0 -7 10 -15 17 -13 20
-31 23 -132 2 -65 8 -136 13 -157 8 -36 6 -43 -25 -81 -44 -53 -65 -104 -65
-154 0 -26 -5 -41 -16 -45 -27 -11 -61 -6 -74 9 -17 20 -49 19 -73 -3 -12 -10
-35 -17 -61 -17 -35 0 -41 -3 -44 -22 -2 -13 -11 -24 -20 -24 -9 -1 -24 -3
-32 -3 -8 -1 -35 -8 -59 -15 -31 -9 -47 -9 -54 -2 -13 13 -47 -14 -47 -36 0
-7 -9 -13 -19 -13 -11 0 -33 -11 -49 -25 -23 -19 -28 -30 -24 -51 l5 -27 -30
23 c-30 21 -31 21 -64 5 -56 -28 -69 -45 -69 -86 0 -48 -18 -89 -40 -89 -10 0
-28 -8 -41 -18 -36 -28 -85 -42 -145 -42 -48 0 -57 4 -88 35 -20 19 -40 35
-46 35 -5 0 -9 15 -8 32 l3 33 -78 -3 c-64 -3 -82 0 -98 14 -22 20 -95 22
-127 5 -32 -17 -50 -13 -54 12 -2 15 -11 23 -28 25 -34 5 -52 22 -47 44 4 12
-10 30 -44 59 -77 64 -77 68 -19 150 27 40 50 78 50 84 0 7 9 15 20 18 31 8
35 35 11 68 l-22 30 20 26 c12 14 21 34 21 44 0 11 6 19 14 19 21 0 76 67 76
92 0 12 -10 32 -21 44 -20 21 -27 23 -99 17 -68 -5 -84 -3 -125 17 -78 38 -80
80 -9 197 40 66 41 74 14 98 -27 24 -25 39 5 59 14 9 25 21 25 27 0 6 14 27
31 46 28 32 29 36 14 53 -8 9 -33 22 -56 29 -35 10 -39 15 -33 34 3 12 12 27
19 32 7 6 30 31 50 55 21 25 43 45 49 45 17 0 81 56 95 83 9 17 18 21 33 16
29 -9 94 14 150 53 26 18 58 33 71 33 13 0 34 11 47 25 13 14 38 28 57 31 23
4 38 15 48 34 13 25 21 28 89 35 55 5 79 12 92 26 14 15 25 18 48 13 17 -3 36
-11 43 -16 22 -17 33 2 33 56 0 56 12 76 45 76 11 0 33 8 48 18 29 20 142 28
162 12z"/>
</g>
<g transform="translate(0.000000,219.000000) scale(0.100000,-0.100000)"
fill="RGBA(128,255,255,255)" stroke="none">
<path d="M485 1250 c-11 -17 4 -28 45 -35 22 -4 38 -10 35 -15 -10 -16 34 -17
49 -1 22 25 21 29 -20 46 -41 17 -100 20 -109 5z"/>
</g>
<g transform="translate(0.000000,219.000000) scale(0.100000,-0.100000)"
fill="RGBA(128,64,0,255)" stroke="none">
<path d="M1383 2118 c-15 -10 -37 -18 -48 -18 -33 0 -45 -20 -45 -76 0 -54
-11 -73 -33 -56 -7 5 -26 13 -43 16 -23 5 -34 2 -48 -13 -13 -14 -37 -21 -92
-26 -68 -7 -76 -10 -89 -35 -10 -19 -25 -30 -48 -34 -19 -3 -44 -17 -57 -31
-13 -14 -34 -25 -47 -25 -13 0 -45 -15 -71 -33 -56 -39 -121 -62 -150 -53 -15
5 -24 1 -33 -16 -14 -27 -78 -83 -95 -83 -6 0 -28 -20 -49 -45 -20 -24 -43
-49 -50 -55 -7 -5 -16 -20 -19 -32 -6 -19 -2 -24 33 -34 23 -7 48 -20 56 -29
15 -17 14 -21 -14 -53 -17 -19 -31 -40 -31 -46 0 -6 -11 -18 -25 -27 -30 -20
-32 -35 -5 -59 27 -24 26 -32 -14 -98 -71 -117 -69 -159 9 -197 41 -20 57 -22
125 -17 72 6 79 4 99 -17 11 -12 21 -32 21 -44 0 -25 -55 -92 -76 -92 -8 0
-14 -8 -14 -19 0 -10 -9 -30 -21 -44 l-20 -26 22 -30 c24 -33 20 -60 -11 -68
-11 -3 -20 -11 -20 -17 0 -7 -20 -41 -45 -76 -24 -36 -42 -66 -40 -68 2 -2 24
5 48 17 24 11 48 21 54 21 6 0 36 11 66 25 52 24 79 50 157 149 8 10 40 48 70
85 31 36 69 84 85 106 16 22 73 84 126 137 53 54 102 110 108 125 6 16 26 35
44 42 17 8 34 17 37 21 3 4 32 22 65 40 71 39 169 138 293 296 31 40 54 57
107 79 65 28 68 28 142 16 42 -7 84 -18 94 -24 10 -6 47 -55 81 -109 38 -58
73 -101 88 -107 76 -32 104 -8 77 68 -9 27 -17 71 -17 99 0 28 -5 63 -10 77
-7 17 -7 33 0 45 7 13 5 21 -6 31 -8 7 -12 19 -8 28 3 9 7 46 7 82 l2 65 -27
-10 c-34 -13 -68 14 -68 55 0 30 -23 59 -45 59 -8 0 -21 10 -29 23 -32 46 -87
81 -136 83 -26 1 -66 11 -89 22 -23 12 -68 24 -99 28 -31 3 -61 10 -67 14 -20
16 -133 8 -162 -12z m-789 -873 c41 -17 42 -21 20 -46 -15 -16 -59 -15 -49 1
3 5 -13 11 -35 15 -22 4 -42 11 -46 16 -18 30 49 39 110 14z"/>
</g>
<g transform="translate(0.000000,219.000000) scale(0.100000,-0.100000)"
fill="RGBA(137,184,44,255)" stroke="none">
<path d="M1668 1335 c-34 -23 -119 -125 -163 -197 -11 -18 -39 -43 -62 -56
-40 -22 -151 -145 -212 -234 -16 -23 -45 -58 -65 -76 -19 -18 -38 -41 -41 -52
-4 -11 -10 -20 -15 -20 -13 0 -90 -120 -90 -139 0 -23 -44 -70 -100 -108 -25
-16 -93 -47 -152 -67 -118 -42 -249 -105 -255 -123 -2 -6 8 -13 24 -15 20 -2
29 -9 31 -26 4 -24 22 -28 54 -11 32 17 105 15 127 -5 16 -14 34 -17 98 -14
l78 3 -3 -32 c-1 -18 3 -33 8 -33 6 0 26 -16 46 -35 31 -31 40 -35 88 -35 60
0 109 14 145 42 13 10 31 18 41 18 22 0 40 41 40 89 0 41 13 58 69 86 33 16
34 16 64 -5 l30 -23 -5 27 c-4 21 1 32 24 51 16 14 38 25 49 25 10 0 19 6 19
13 0 22 34 49 47 36 7 -7 23 -7 54 2 24 7 51 14 59 15 8 0 23 2 32 3 9 0 18
11 20 24 3 19 9 22 44 22 26 0 49 7 61 17 24 22 56 23 73 3 13 -15 47 -20 74
-9 11 4 16 19 16 45 0 50 21 101 65 154 31 39 33 45 25 82 -6 23 -11 88 -12
146 l-2 105 -47 20 c-42 17 -49 25 -68 76 -11 31 -21 75 -21 97 0 22 -6 55
-14 74 -21 49 -59 65 -158 64 -70 0 -89 -4 -120 -24z"/>
</g>
<g transform="translate(0.000000,219.000000) scale(0.100000,-0.100000)"
fill="RGBA(246,222,139,255)" stroke="none">
<path d="M1644 1581 c-44 -21 -71 -42 -98 -77 -109 -143 -220 -255 -291 -294
-33 -18 -62 -36 -65 -40 -3 -4 -20 -13 -37 -21 -18 -7 -38 -26 -44 -42 -6 -15
-55 -71 -108 -125 -53 -53 -110 -115 -126 -137 -16 -22 -54 -70 -85 -106 -30
-37 -62 -75 -70 -85 -98 -125 -125 -145 -242 -180 -26 -8 -50 -19 -53 -24 -3
-6 -15 -10 -26 -10 -32 0 -22 -22 39 -78 31 -30 56 -59 54 -64 -2 -6 -1 -17 2
-25 5 -12 11 -11 33 5 43 29 148 76 253 112 131 46 240 123 240 171 0 19 77
139 90 139 5 0 11 9 15 20 3 11 22 34 41 52 20 18 49 53 65 76 61 89 172 212
212 234 23 13 51 38 62 56 46 75 129 175 166 197 33 21 51 25 119 25 54 0 91
-5 111 -16 36 -18 59 -67 59 -123 0 -22 9 -66 21 -97 18 -48 27 -59 63 -75 43
-19 63 -9 30 16 -11 8 -15 15 -10 15 5 0 3 7 -4 15 -10 12 -10 18 1 32 18 21
71 43 104 43 34 0 32 13 -10 54 -29 29 -35 43 -35 76 0 30 -5 42 -17 46 -59
19 -72 31 -131 123 -35 54 -74 103 -85 109 -28 14 -119 32 -155 32 -15 -1 -54
-14 -88 -29z"/>
</g>
</svg>
