<?xml version="1.0" standalone="no"?>
<!DOCTYPE svg PUBLIC "-//W3C//DTD SVG 20010904//EN"
 "http://www.w3.org/TR/2001/REC-SVG-20010904/DTD/svg10.dtd">
<svg version="1.0" xmlns="http://www.w3.org/2000/svg"
 width="135.000000pt" height="122.000000pt" viewBox="0 0 135.000000 122.000000"
 preserveAspectRatio="xMidYMid meet">
<metadata>
Created by potrace 1.16, written by Peter Selinger 2001-2019
</metadata>
<g transform="translate(0.000000,122.000000) scale(0.100000,-0.100000)"
fill="RGBA(109,106,102,255)" stroke="none">
<path d="M733 1133 c15 -2 37 -2 50 0 12 2 0 4 -28 4 -27 0 -38 -2 -22 -4z"/>
<path d="M818 1133 c7 -3 16 -2 19 1 4 3 -2 6 -13 5 -11 0 -14 -3 -6 -6z"/>
<path d="M868 1123 c6 -2 18 -2 25 0 6 3 1 5 -13 5 -14 0 -19 -2 -12 -5z"/>
<path d="M918 1123 c7 -3 16 -2 19 1 4 3 -2 6 -13 5 -11 0 -14 -3 -6 -6z"/>
<path d="M631 1104 c0 -11 3 -14 6 -6 3 7 2 16 -1 19 -3 4 -6 -2 -5 -13z"/>
<path d="M663 1098 c1 -20 32 -24 43 -6 4 7 3 8 -4 4 -7 -4 -12 -3 -12 3 0 5
6 11 13 14 6 2 0 4 -15 3 -19 -1 -26 -6 -25 -18z"/>
<path d="M962 1020 c0 -14 2 -19 5 -12 2 6 2 18 0 25 -3 6 -5 1 -5 -13z"/>
<path d="M356 1005 c-3 -8 -1 -15 4 -15 6 0 10 7 10 15 0 8 -2 15 -4 15 -2 0
-6 -7 -10 -15z"/>
<path d="M759 997 c4 -4 50 -6 102 -5 l94 3 -102 5 c-56 3 -99 1 -94 -3z"/>
<path d="M400 980 c-9 -6 -10 -10 -3 -10 6 0 15 5 18 10 8 12 4 12 -15 0z"/>
<path d="M345 958 c-16 -6 -39 -17 -50 -24 -16 -12 -17 -14 -3 -14 9 0 20 5
23 10 4 7 13 7 26 0 15 -9 21 -7 26 7 3 10 8 21 10 26 5 8 7 8 -32 -5z"/>
<path d="M553 953 c9 -2 25 -2 35 0 9 3 1 5 -18 5 -19 0 -27 -2 -17 -5z"/>
<path d="M1098 953 c17 -2 47 -2 65 0 17 2 3 4 -33 4 -36 0 -50 -2 -32 -4z"/>
<path d="M1001 924 c0 -11 3 -14 6 -6 3 7 2 16 -1 19 -3 4 -6 -2 -5 -13z"/>
<path d="M483 830 c0 -52 2 -83 4 -67 4 28 23 38 23 12 0 -8 5 -15 10 -15 16
0 12 37 -6 54 -9 9 -19 38 -23 64 -7 39 -8 30 -8 -48z"/>
<path d="M694 803 c1 -67 4 -124 8 -128 9 -9 9 173 -1 215 -5 23 -7 -7 -7 -87z"/>
<path d="M351 894 c0 -11 3 -14 6 -6 3 7 2 16 -1 19 -3 4 -6 -2 -5 -13z"/>
<path d="M883 893 c9 -2 23 -2 30 0 6 3 -1 5 -18 5 -16 0 -22 -2 -12 -5z"/>
<path d="M375 880 c-3 -5 -1 -10 4 -10 6 0 11 5 11 10 0 6 -2 10 -4 10 -3 0
-8 -4 -11 -10z"/>
<path d="M933 825 c0 -33 2 -45 4 -27 2 18 2 45 0 60 -2 15 -4 0 -4 -33z"/>
<path d="M1200 870 c0 -5 5 -10 11 -10 5 0 7 5 4 10 -3 6 -8 10 -11 10 -2 0
-4 -4 -4 -10z"/>
<path d="M120 860 c-8 -5 -12 -12 -9 -15 4 -3 12 1 19 10 14 17 11 19 -10 5z"/>
<path d="M515 840 c3 -5 8 -10 11 -10 2 0 4 5 4 10 0 6 -5 10 -11 10 -5 0 -7
-4 -4 -10z"/>
<path d="M558 843 c12 -2 30 -2 40 0 9 3 -1 5 -23 4 -22 0 -30 -2 -17 -4z"/>
<path d="M1011 834 c0 -11 3 -14 6 -6 3 7 2 16 -1 19 -3 4 -6 -2 -5 -13z"/>
<path d="M82 820 c0 -14 2 -19 5 -12 2 6 2 18 0 25 -3 6 -5 1 -5 -13z"/>
<path d="M207 823 c-10 -10 -8 -83 2 -83 6 0 11 90 5 90 0 0 -4 -3 -7 -7z"/>
<path d="M1125 810 c4 -11 2 -20 -4 -20 -6 0 -11 5 -11 10 0 6 -4 10 -10 10
-5 0 -7 -7 -3 -16 3 -9 13 -14 24 -11 11 3 19 1 19 -5 0 -5 4 -7 9 -4 13 9 0
56 -16 56 -10 0 -12 -6 -8 -20z"/>
<path d="M108 803 c5 -10 8 -26 7 -35 -2 -10 2 -18 8 -18 7 0 5 -5 -3 -10 -9
-6 -10 -10 -3 -10 6 0 15 5 18 10 8 13 -14 80 -26 80 -6 0 -6 -7 -1 -17z"/>
<path d="M301 803 c-1 -16 5 -23 17 -23 10 0 13 3 6 8 -6 4 -14 14 -17 22 -4
10 -6 8 -6 -7z"/>
<path d="M366 803 c-6 -14 -5 -15 5 -6 7 7 10 15 7 18 -3 3 -9 -2 -12 -12z"/>
<path d="M1211 803 c-1 -13 -6 -23 -12 -23 -5 0 -7 5 -4 10 3 6 1 10 -4 10 -6
0 -11 -7 -11 -15 0 -8 -6 -15 -12 -15 -9 0 -8 -4 2 -10 8 -5 10 -10 3 -10 -6
0 -9 -9 -6 -20 3 -11 10 -20 15 -20 6 0 8 7 4 15 -3 8 2 18 10 23 9 5 16 13
16 18 0 5 3 14 5 21 3 7 3 18 0 25 -3 7 -6 3 -6 -9z"/>
<path d="M150 789 c0 -11 5 -17 10 -14 6 3 10 13 10 21 0 8 -4 14 -10 14 -5 0
-10 -9 -10 -21z"/>
<path d="M230 781 c0 -17 4 -32 8 -35 4 -2 6 11 4 30 -5 42 -12 45 -12 5z"/>
<path d="M574 795 c-3 -8 -3 -19 1 -25 3 -5 2 -10 -4 -10 -5 0 -11 5 -13 12
-3 7 -7 6 -11 -5 -4 -12 -1 -17 10 -17 14 0 14 -2 -3 -15 -16 -13 -17 -16 -4
-25 8 -5 10 -10 4 -10 -7 0 -14 -6 -17 -12 -3 -9 6 -13 25 -14 l29 -1 -2 68
c-2 70 -5 81 -15 54z"/>
<path d="M281 760 c-3 -43 -4 -44 -12 -15 -5 19 -5 8 -2 -30 4 -33 6 -69 5
-80 -1 -18 0 -18 9 -3 5 10 8 53 6 95 -2 53 -4 64 -6 33z"/>
<path d="M895 789 c-4 -6 -5 -12 -2 -15 2 -3 7 2 10 11 7 17 1 20 -8 4z"/>
<path d="M82 760 c0 -19 2 -27 5 -17 2 9 2 25 0 35 -3 9 -5 1 -5 -18z"/>
<path d="M793 745 c0 -27 2 -38 4 -22 2 15 2 37 0 50 -2 12 -4 0 -4 -28z"/>
<path d="M1025 770 c4 -6 10 -8 15 -5 4 3 10 0 12 -7 5 -15 38 -3 38 14 0 9
-3 9 -10 -2 -7 -12 -12 -12 -22 -2 -14 14 -42 16 -33 2z"/>
<path d="M601 754 c0 -11 3 -14 6 -6 3 7 2 16 -1 19 -3 4 -6 -2 -5 -13z"/>
<path d="M150 748 c0 -7 5 -20 10 -28 8 -12 10 -11 10 7 0 12 -4 25 -10 28 -5
3 -10 0 -10 -7z"/>
<path d="M655 750 c3 -5 8 -10 11 -10 2 0 4 5 4 10 0 6 -5 10 -11 10 -5 0 -7
-4 -4 -10z"/>
<path d="M1010 744 c0 -8 5 -12 10 -9 6 4 8 11 5 16 -9 14 -15 11 -15 -7z"/>
<path d="M1203 725 c21 -21 22 -35 1 -35 -8 0 -12 -4 -9 -10 14 -22 32 -9 31
22 -1 24 -6 34 -20 36 -18 4 -19 3 -3 -13z"/>
<path d="M647 718 c-15 -6 -26 -15 -24 -21 3 -7 -2 -19 -10 -28 -12 -14 -12
-17 1 -22 9 -4 17 1 21 14 4 11 16 28 28 39 26 24 20 30 -16 18z"/>
<path d="M480 695 c0 -14 4 -25 9 -25 4 0 6 11 3 25 -2 14 -6 25 -8 25 -2 0
-4 -11 -4 -25z"/>
<path d="M1028 703 c-20 -5 -13 -33 9 -33 8 0 12 4 8 9 -3 6 3 14 12 20 19 11
5 13 -29 4z"/>
<path d="M1147 698 c-3 -10 0 -19 8 -22 15 -5 31 11 21 21 -3 4 -6 0 -7 -8 0
-8 -3 -6 -8 5 -6 17 -8 17 -14 4z"/>
<path d="M212 680 c0 -14 2 -19 5 -12 2 6 2 18 0 25 -3 6 -5 1 -5 -13z"/>
<path d="M870 688 c0 -9 7 -19 16 -22 15 -6 15 -4 3 11 -7 10 -15 20 -16 22
-2 2 -3 -3 -3 -11z"/>
<path d="M181 674 c0 -11 3 -14 6 -6 3 7 2 16 -1 19 -3 4 -6 -2 -5 -13z"/>
<path d="M659 673 c-13 -16 -12 -17 4 -4 9 7 17 15 17 17 0 8 -8 3 -21 -13z"/>
<path d="M116 665 c4 -8 11 -15 16 -15 6 0 5 6 -2 15 -7 8 -14 15 -16 15 -2 0
-1 -7 2 -15z"/>
<path d="M97 645 c-4 -11 -10 -27 -13 -35 -3 -8 1 -5 11 8 9 12 15 28 13 34
-3 7 -7 4 -11 -7z"/>
<path d="M161 649 c-1 -9 6 -19 14 -23 9 -3 15 0 15 10 0 8 -4 13 -9 10 -5 -4
-12 0 -14 6 -4 8 -6 7 -6 -3z"/>
<path d="M200 635 c0 -8 5 -15 10 -15 6 0 10 7 10 15 0 8 -4 15 -10 15 -5 0
-10 -7 -10 -15z"/>
<path d="M230 636 c0 -9 5 -16 10 -16 6 0 10 4 10 9 0 6 -4 13 -10 16 -5 3
-10 -1 -10 -9z"/>
<path d="M310 626 c0 -8 4 -17 9 -20 5 -4 7 3 4 14 -6 23 -13 26 -13 6z"/>
<path d="M121 573 c0 -29 3 -53 7 -53 4 0 6 17 4 38 -6 64 -10 69 -11 15z"/>
<path d="M393 555 c-3 -9 -3 -18 -1 -21 3 -3 8 4 11 16 6 23 -1 27 -10 5z"/>
<path d="M442 530 c0 -14 2 -19 5 -12 2 6 2 18 0 25 -3 6 -5 1 -5 -13z"/>
<path d="M992 520 c0 -14 2 -19 5 -12 2 6 2 18 0 25 -3 6 -5 1 -5 -13z"/>
<path d="M86 510 c3 -14 10 -29 15 -34 14 -16 10 6 -7 34 l-15 25 7 -25z"/>
<path d="M302 485 c0 -16 2 -22 5 -12 2 9 2 23 0 30 -3 6 -5 -1 -5 -18z"/>
<path d="M1112 446 c7 -8 16 -12 21 -9 11 7 -2 23 -19 23 -12 0 -12 -2 -2 -14z"/>
<path d="M1155 438 c3 -12 10 -26 16 -32 9 -8 10 -7 4 3 -4 8 -2 17 6 23 10 7
9 8 -6 3 -16 -5 -18 -4 -7 7 10 10 16 10 32 0 17 -10 20 -10 20 3 0 10 -10 15
-34 15 -30 0 -34 -3 -31 -22z"/>
<path d="M525 440 c-3 -5 0 -12 6 -16 8 -4 9 -3 5 4 -13 21 6 13 30 -13 25
-27 60 -35 51 -11 -3 7 0 19 6 25 6 6 9 11 7 12 -33 6 -101 5 -105 -1z"/>
<path d="M670 432 c0 -12 4 -22 9 -22 10 0 9 26 -2 36 -4 4 -7 -2 -7 -14z"/>
<path d="M858 443 c7 -3 16 -2 19 1 4 3 -2 6 -13 5 -11 0 -14 -3 -6 -6z"/>
<path d="M180 431 c0 -6 4 -13 10 -16 6 -3 7 1 4 9 -7 18 -14 21 -14 7z"/>
<path d="M223 425 c0 -8 4 -12 9 -9 5 3 6 10 3 15 -9 13 -12 11 -12 -6z"/>
<path d="M1125 410 c-3 -5 1 -10 9 -10 9 0 16 5 16 10 0 6 -4 10 -9 10 -6 0
-13 -4 -16 -10z"/>
<path d="M226 388 c3 -5 10 -6 15 -3 13 9 11 12 -6 12 -8 0 -12 -4 -9 -9z"/>
<path d="M154 379 c-5 -8 -3 -9 6 -4 7 4 16 2 22 -6 8 -12 9 -12 6 0 -6 20
-24 25 -34 10z"/>
<path d="M336 375 c-3 -9 -6 -22 -5 -28 0 -7 5 -1 10 12 5 13 8 26 5 28 -2 2
-6 -3 -10 -12z"/>
<path d="M281 371 c-12 -8 -12 -12 3 -26 20 -21 25 -18 17 12 -4 16 -10 20
-20 14z"/>
<path d="M798 363 c7 -3 16 -2 19 1 4 3 -2 6 -13 5 -11 0 -14 -3 -6 -6z"/>
<path d="M878 363 c12 -2 32 -2 45 0 12 2 2 4 -23 4 -25 0 -35 -2 -22 -4z"/>
<path d="M758 333 c6 -2 18 -2 25 0 6 3 1 5 -13 5 -14 0 -19 -2 -12 -5z"/>
<path d="M913 333 c15 -2 37 -2 50 0 12 2 0 4 -28 4 -27 0 -38 -2 -22 -4z"/>
<path d="M1050 331 c-24 -4 -36 -12 -39 -26 -2 -11 -7 -22 -12 -25 -11 -8 -14
-93 -4 -110 5 -8 4 -11 -2 -7 -5 3 -22 8 -38 11 -16 3 -32 11 -37 18 -4 7 -8
11 -9 8 0 -3 -2 -13 -4 -22 -2 -11 3 -18 12 -18 10 0 14 -6 10 -20 -3 -11 -1
-20 4 -20 5 0 9 5 9 12 0 6 7 3 15 -8 14 -18 14 -17 5 8 -5 16 -6 28 -1 28 12
0 32 -26 25 -33 -3 -3 1 -4 10 -3 8 1 19 6 23 11 4 4 2 5 -4 1 -7 -4 -13 -3
-13 2 0 12 66 25 80 17 6 -3 10 -2 10 4 0 7 9 7 29 0 15 -6 41 -8 57 -5 16 2
34 5 40 5 12 1 41 89 35 106 -10 31 -11 56 -1 50 5 -3 10 -2 10 3 0 5 -10 12
-22 16 -28 7 -140 6 -188 -3z m158 -114 c-2 -17 -9 -33 -17 -35 -9 -3 -12 0
-8 11 10 26 -3 26 -30 1 -14 -13 -31 -24 -37 -24 -6 0 -4 5 4 10 11 8 1 9 -34
5 -28 -3 -52 -9 -55 -14 -3 -5 -12 -3 -18 5 -8 8 -9 15 -3 19 6 4 8 10 5 15
-11 18 24 32 55 22 16 -6 30 -8 30 -3 0 12 53 27 83 23 25 -4 28 -8 25 -35z"/>
<path d="M401 317 c-1 -11 -6 -15 -13 -11 -7 5 -8 3 -3 -5 10 -16 29 2 22 21
-4 8 -6 7 -6 -5z"/>
<path d="M548 322 c-68 -3 -75 -8 -69 -45 1 -5 -3 -6 -9 -2 -5 3 -10 2 -10 -4
0 -5 4 -12 9 -15 5 -4 3 -19 -5 -35 -9 -19 -11 -36 -6 -51 7 -20 17 -23 83
-27 49 -3 77 -9 82 -19 10 -18 31 -19 24 -1 -3 7 1 21 9 31 12 17 14 17 20 3
5 -13 18 -16 65 -13 33 1 61 0 64 -3 5 -10 95 0 95 10 0 5 -11 7 -25 5 -22 -4
-24 -2 -15 14 8 16 8 18 -5 14 -8 -4 -15 -14 -16 -23 0 -11 -3 -9 -9 7 -12 29
-23 29 -15 0 5 -20 4 -21 -5 -5 -6 9 -18 17 -26 17 -8 0 -12 -5 -9 -10 4 -6
11 -7 17 -4 6 4 8 2 5 -4 -4 -5 -15 -9 -25 -7 -72 15 -73 15 -63 34 7 12 6 22
-2 31 -10 10 -8 12 6 7 11 -4 16 -3 12 3 -3 6 2 10 12 10 14 0 15 2 5 9 -8 4
-13 11 -13 15 1 3 1 20 1 36 l0 30 -57 -2 c-32 -2 -88 -4 -125 -6z m157 -57
c0 -11 -11 -25 -24 -32 l-25 -12 27 -6 c23 -6 25 -9 15 -31 -10 -22 -13 -23
-26 -10 -13 13 -17 12 -34 -7 -11 -12 -16 -16 -13 -9 4 8 2 13 -6 11 -38 -5
-60 3 -70 24 l-10 22 5 -22 c3 -17 -1 -23 -15 -23 -20 0 -21 4 -21 58 1 62 3
63 104 60 85 -3 93 -5 93 -23z"/>
<path d="M525 270 c-3 -5 -1 -10 4 -10 6 0 11 5 11 10 0 6 -2 10 -4 10 -3 0
-8 -4 -11 -10z"/>
<path d="M558 269 c-9 -6 -5 -9 11 -9 14 0 32 -7 42 -16 11 -10 19 -12 24 -5
3 6 -1 11 -9 11 -8 0 -17 4 -20 9 -4 5 3 7 14 4 11 -3 20 0 20 6 0 12 -62 12
-82 0z"/>
<path d="M665 250 c-16 -7 -17 -9 -3 -9 9 -1 20 4 23 9 7 11 7 11 -20 0z"/>
<path d="M280 304 c0 -8 5 -12 10 -9 6 3 10 -2 10 -11 0 -22 9 -13 14 13 3 13
-2 19 -15 20 -11 1 -19 -5 -19 -13z"/>
<path d="M747 305 c-4 -8 -2 -17 3 -20 6 -4 10 -20 10 -37 0 -17 3 -28 7 -25
3 4 12 -1 20 -11 8 -9 11 -11 7 -3 -5 11 -2 13 14 9 12 -4 22 -2 22 2 0 4 8 6
19 3 15 -4 18 0 14 19 -4 19 0 25 14 25 10 0 21 -5 25 -11 5 -8 11 -7 20 2 9
9 9 12 -5 12 -9 0 -20 7 -25 15 -12 23 -42 8 -42 -22 0 -20 -4 -23 -20 -18
-13 4 -20 2 -20 -7 -1 -8 -6 -6 -15 6 -12 16 -12 20 1 33 8 8 12 18 9 23 -3 5
3 11 12 13 10 3 -1 5 -23 6 -28 1 -44 -4 -47 -14z"/>
<path d="M930 303 c0 -9 6 -13 14 -10 7 3 19 0 25 -6 8 -8 11 -6 11 9 0 13 -7
19 -25 20 -16 1 -25 -3 -25 -13z"/>
<path d="M810 270 c0 -6 4 -9 9 -6 5 4 12 1 14 -4 3 -6 4 -5 3 2 -3 15 -26 23
-26 8z"/>
<path d="M360 238 c0 -42 5 -47 19 -19 7 13 6 24 -4 37 -13 18 -14 16 -15 -18z"/>
<path d="M440 256 c0 -8 5 -18 10 -21 6 -3 10 1 10 9 0 8 -4 18 -10 21 -5 3
-10 -1 -10 -9z"/>
<path d="M876 252 c-2 -4 -1 -14 5 -22 7 -12 9 -10 9 8 0 23 -5 28 -14 14z"/>
<path d="M951 253 c0 -6 -11 -13 -23 -15 -12 -2 -23 -9 -26 -16 -3 -11 -1 -11
17 0 14 8 24 9 29 3 12 -16 32 -16 32 1 0 8 -4 13 -9 9 -5 -3 -12 3 -14 12 -3
10 -5 13 -6 6z"/>
<path d="M416 224 c-3 -8 -2 -12 3 -9 5 3 12 -3 14 -12 4 -14 5 -13 6 4 1 27
-15 39 -23 17z"/>
<path d="M368 183 c7 -3 16 -2 19 1 4 3 -2 6 -13 5 -11 0 -14 -3 -6 -6z"/>
<path d="M880 180 c0 -5 5 -10 11 -10 5 0 7 5 4 10 -3 6 -8 10 -11 10 -2 0 -4
-4 -4 -10z"/>
<path d="M690 126 c0 -2 8 -10 18 -17 15 -13 16 -12 3 4 -13 16 -21 21 -21 13z"/>
<path d="M891 114 c0 -11 3 -14 6 -6 3 7 2 16 -1 19 -3 4 -6 -2 -5 -13z"/>
<path d="M1070 98 c0 -11 28 -10 35 1 3 6 -4 9 -15 8 -11 -1 -20 -5 -20 -9z"/>
<path d="M638 83 c7 -3 16 -2 19 1 4 3 -2 6 -13 5 -11 0 -14 -3 -6 -6z"/>
<path d="M710 66 c0 -2 7 -7 16 -10 8 -3 12 -2 9 4 -6 10 -25 14 -25 6z"/>
</g>
<g transform="translate(0.000000,122.000000) scale(0.100000,-0.100000)"
fill="RGBA(163,63,55,255)" stroke="none">
<path d="M231 900 c-91 -31 -126 -56 -115 -83 6 -18 24 -23 24 -8 0 10 54 33
103 44 6 1 17 5 22 9 13 7 55 -8 56 -22 1 -5 2 -16 3 -22 0 -7 9 -14 19 -16
19 -4 22 22 11 91 -8 45 -13 46 -123 7z"/>
<path d="M330 760 c-32 -20 -18 -160 15 -160 8 0 20 -3 29 -6 14 -5 16 6 15
82 -1 86 -2 89 -24 90 -12 1 -28 -2 -35 -6z"/>
<path d="M1113 663 c4 -6 -4 -14 -18 -17 -24 -6 -36 -26 -15 -26 6 0 10 -5 10
-12 0 -9 -3 -9 -12 0 -15 15 -32 16 -23 2 3 -5 2 -10 -4 -10 -19 0 -23 -46 -7
-84 15 -36 15 -36 -10 -36 -22 0 -24 -4 -24 -50 l0 -51 123 3 122 3 3 48 3 47
-51 0 c-32 0 -49 -4 -45 -10 3 -5 17 -10 31 -10 15 0 24 -6 24 -15 0 -8 -4
-15 -10 -15 -5 0 -9 -5 -7 -11 1 -8 -23 -13 -69 -16 -60 -3 -72 -1 -78 12 -8
21 0 35 20 35 8 0 14 5 14 10 0 6 7 10 16 10 14 0 14 2 -1 16 -9 9 -13 24 -10
35 5 14 1 19 -14 19 -14 0 -21 6 -21 20 0 28 36 26 44 -2 5 -19 8 -21 16 -8 5
8 9 29 9 45 -1 29 -1 30 -9 5 -8 -23 -8 -23 -7 7 1 17 5 29 9 27 4 -3 8 2 8
10 0 8 -5 18 -12 22 -6 4 -8 3 -5 -3z"/>
<path d="M80 557 c0 -16 7 -26 18 -30 15 -3 19 1 18 22 -1 35 -36 43 -36 8z"/>
<path d="M324 545 c-4 -21 -2 -41 5 -48 6 -8 9 -23 7 -34 -5 -26 0 -33 54 -68
l46 -30 141 3 140 3 7 46 c3 26 5 48 3 49 -1 2 -69 4 -150 5 -185 1 -185 1
-184 46 1 24 -5 40 -18 49 -30 22 -44 17 -51 -21z m295 -98 c60 -2 65 -5 71
-28 l7 -25 -87 -3 c-69 -2 -89 1 -100 14 -11 13 -10 19 5 35 9 10 22 17 28 14
7 -2 41 -5 76 -7z"/>
<path d="M818 333 c6 -2 18 -2 25 0 6 3 1 5 -13 5 -14 0 -19 -2 -12 -5z"/>
<path d="M945 292 c-5 -4 -16 -17 -23 -29 -11 -21 -10 -23 8 -23 11 0 20 6 20
13 0 8 4 7 10 -3 8 -12 10 -11 10 8 0 12 -5 22 -11 22 -5 0 -7 5 -4 10 7 12 4
13 -10 2z"/>
</g>
<g transform="translate(0.000000,122.000000) scale(0.100000,-0.100000)"
fill="RGBA(164,153,141,255)" stroke="none">
<path d="M649 1124 c-13 -16 -12 -16 8 -6 27 15 34 15 31 1 -2 -6 4 -14 12
-16 13 -4 13 -3 0 6 -13 9 -12 11 4 11 25 0 12 13 -18 17 -13 2 -29 -4 -37
-13z"/>
<path d="M795 1130 c-3 -5 1 -10 10 -10 9 0 13 5 10 10 -3 6 -8 10 -10 10 -2
0 -7 -4 -10 -10z"/>
<path d="M948 1123 c6 -2 18 -2 25 0 6 3 1 5 -13 5 -14 0 -19 -2 -12 -5z"/>
<path d="M747 1073 c-10 -9 -9 -63 1 -63 6 0 12 70 6 70 0 0 -4 -3 -7 -7z"/>
<path d="M373 1006 c0 -8 3 -13 7 -11 4 2 17 -7 30 -20 18 -20 21 -27 11 -39
-9 -10 -9 -16 -1 -21 6 -4 9 -12 7 -19 -2 -6 -1 -20 4 -31 5 -13 7 5 6 48 -1
37 -5 66 -9 65 -3 -2 -17 7 -31 20 -17 16 -24 18 -24 8z"/>
<path d="M518 953 c7 -3 16 -2 19 1 4 3 -2 6 -13 5 -11 0 -14 -3 -6 -6z"/>
<path d="M280 935 c-14 -8 -20 -14 -14 -15 5 0 19 7 30 15 24 18 16 19 -16 0z"/>
<path d="M373 930 c1 -8 6 -18 12 -22 5 -4 8 -39 7 -78 -2 -52 0 -70 8 -65 8
5 10 31 7 76 -3 50 -2 67 7 62 7 -4 6 -1 -1 7 -9 9 -9 17 -2 26 7 9 3 12 -15
10 -17 0 -25 -6 -23 -16z"/>
<path d="M703 905 c0 -22 2 -30 4 -17 2 12 2 30 0 40 -3 9 -5 -1 -4 -23z"/>
<path d="M776 931 c-4 -5 33 -9 90 -10 54 -1 93 3 90 8 -8 12 -173 14 -180 2z"/>
<path d="M1213 905 c0 -22 2 -30 4 -17 2 12 2 30 0 40 -3 9 -5 -1 -4 -23z"/>
<path d="M1241 924 c0 -11 3 -14 6 -6 3 7 2 16 -1 19 -3 4 -6 -2 -5 -13z"/>
<path d="M220 910 c-8 -5 -10 -10 -5 -10 6 0 17 5 25 10 8 5 11 10 5 10 -5 0
-17 -5 -25 -10z"/>
<path d="M651 904 c0 -11 3 -14 6 -6 3 7 2 16 -1 19 -3 4 -6 -2 -5 -13z"/>
<path d="M730 858 c0 -40 4 -68 10 -68 12 0 11 102 -1 122 -5 8 -9 -15 -9 -54z"/>
<path d="M1003 845 c0 -38 2 -53 4 -32 2 20 2 52 0 70 -2 17 -4 1 -4 -38z"/>
<path d="M823 893 c9 -2 25 -2 35 0 9 3 1 5 -18 5 -19 0 -27 -2 -17 -5z"/>
<path d="M95 850 c-3 -5 -1 -10 4 -10 6 0 11 5 11 10 0 6 -2 10 -4 10 -3 0 -8
-4 -11 -10z"/>
<path d="M260 850 c0 -5 5 -10 10 -10 6 0 10 -10 10 -22 0 -27 5 -21 14 15 5
23 3 27 -14 27 -11 0 -20 -4 -20 -10z"/>
<path d="M367 833 c-3 -16 -2 -31 1 -35 4 -4 8 9 9 28 3 41 -3 45 -10 7z"/>
<path d="M1207 853 c-4 -3 -7 -22 -7 -41 0 -45 8 -38 13 11 4 39 4 41 -6 30z"/>
<path d="M230 840 c0 -5 5 -10 10 -10 6 0 10 5 10 10 0 6 -4 10 -10 10 -5 0
-10 -4 -10 -10z"/>
<path d="M170 829 c-20 -8 -22 -12 -10 -19 10 -6 17 -4 23 6 5 8 12 12 17 9 5
-3 11 -1 15 5 8 12 -12 12 -45 -1z"/>
<path d="M312 820 c0 -14 2 -19 5 -12 2 6 2 18 0 25 -3 6 -5 1 -5 -13z"/>
<path d="M262 795 c0 -16 2 -22 5 -12 2 9 2 23 0 30 -3 6 -5 -1 -5 -18z"/>
<path d="M431 794 c0 -11 3 -14 6 -6 3 7 2 16 -1 19 -3 4 -6 -2 -5 -13z"/>
<path d="M1215 788 c-13 -42 -13 -47 1 -52 11 -4 14 4 14 34 0 45 -4 50 -15
18z"/>
<path d="M141 752 c-1 -33 -5 -51 -11 -47 -5 3 -10 -3 -10 -14 0 -11 4 -22 10
-26 16 -10 -1 -37 -21 -32 -11 3 -22 0 -26 -5 -3 -7 -1 -8 5 -4 7 4 12 1 12
-9 0 -15 1 -15 16 -1 17 18 39 22 29 6 -3 -6 1 -7 9 -4 11 4 16 0 16 -15 0
-12 -6 -21 -14 -21 -16 0 -31 -34 -21 -50 3 -5 -1 -10 -9 -10 -9 0 -16 -4 -16
-10 0 -5 -1 -13 -2 -17 -2 -5 4 -8 12 -8 18 -1 114 -47 118 -58 2 -4 8 -5 13
-1 5 3 9 0 9 -6 0 -6 4 -8 10 -5 6 3 10 2 10 -3 0 -5 7 -9 15 -9 9 0 14 6 11
13 -3 7 0 11 7 8 7 -2 13 -13 14 -23 3 -41 32 -91 52 -91 12 0 21 3 21 8 0 4
10 13 23 21 20 13 21 13 9 -1 -10 -13 -10 -17 3 -21 8 -4 14 -3 14 1 -5 30 4
41 34 45 28 4 27 4 -8 4 -51 0 -67 5 -81 22 -8 10 -10 6 -8 -17 2 -39 -20 -48
-35 -15 -10 21 -9 27 5 38 15 11 15 12 -5 18 -16 4 -21 13 -22 39 -1 30 -2 31
-8 8 -6 -22 -8 -23 -14 -6 -10 24 2 113 17 125 6 5 20 11 31 15 12 3 9 4 -7 2
-16 -2 -28 1 -28 6 0 5 -4 6 -10 3 -10 -6 -13 9 -11 50 0 13 -3 10 -11 -10
l-12 -30 -12 55 c-12 53 -13 53 -12 15 0 -59 -1 -65 -12 -65 -7 0 -8 13 -4 35
4 24 2 35 -5 35 -7 0 -11 -6 -10 -12 4 -29 -2 -58 -11 -58 -5 0 -8 23 -7 50 1
29 -2 49 -8 47 -5 -2 -8 -38 -6 -85 1 -45 -1 -82 -6 -82 -5 0 -7 18 -5 40 3
27 0 40 -8 40 -8 0 -10 9 -6 26 5 17 3 23 -4 19 -6 -4 -10 3 -10 17 0 18 2 20
10 8 6 -9 10 -10 10 -3 0 6 -4 15 -10 18 -16 10 -12 45 4 39 10 -4 14 1 13 15
-1 14 -5 17 -13 10 -9 -7 -14 -5 -17 8 -3 10 -5 -6 -6 -35z m76 -184 c-3 -8
-6 -5 -6 6 -1 11 2 17 5 13 3 -3 4 -12 1 -19z"/>
<path d="M192 780 c0 -14 2 -19 5 -12 2 6 2 18 0 25 -3 6 -5 1 -5 -13z"/>
<path d="M338 783 c7 -3 16 -2 19 1 4 3 -2 6 -13 5 -11 0 -14 -3 -6 -6z"/>
<path d="M730 770 c0 -5 5 -10 10 -10 6 0 10 5 10 10 0 6 -4 10 -10 10 -5 0
-10 -4 -10 -10z"/>
<path d="M493 725 c0 -27 2 -44 5 -37 2 7 9 9 15 5 9 -5 9 -3 0 8 -6 8 -13 28
-16 44 -2 18 -4 9 -4 -20z"/>
<path d="M1097 763 c-10 -9 -9 -51 1 -57 5 -3 6 8 4 24 -4 25 -1 29 24 33 28
4 28 4 3 6 -14 0 -29 -2 -32 -6z"/>
<path d="M872 730 c0 -19 2 -27 5 -17 2 9 2 25 0 35 -3 9 -5 1 -5 -18z"/>
<path d="M302 720 c0 -19 2 -27 5 -17 2 9 2 25 0 35 -3 9 -5 1 -5 -18z"/>
<path d="M402 720 c0 -19 2 -27 5 -17 2 9 2 25 0 35 -3 9 -5 1 -5 -18z"/>
<path d="M427 721 c-7 -34 3 -160 12 -166 8 -4 6 183 -1 191 -3 2 -8 -9 -11
-25z"/>
<path d="M1130 740 c0 -5 5 -10 11 -10 5 0 7 5 4 10 -3 6 -8 10 -11 10 -2 0
-4 -4 -4 -10z"/>
<path d="M903 705 c0 -22 2 -30 4 -17 2 12 2 30 0 40 -3 9 -5 -1 -4 -23z"/>
<path d="M1045 720 c3 -5 12 -7 20 -3 21 7 19 13 -6 13 -11 0 -18 -4 -14 -10z"/>
<path d="M737 703 c-3 -5 -1 -17 4 -28 7 -17 8 -17 8 8 1 27 -4 34 -12 20z"/>
<path d="M1210 701 c0 -6 4 -13 10 -16 6 -3 7 1 4 9 -7 18 -14 21 -14 7z"/>
<path d="M400 618 c-3 -31 -1 -53 3 -49 5 5 7 30 5 57 l-3 49 -5 -57z"/>
<path d="M481 654 c0 -11 3 -14 6 -6 3 7 2 16 -1 19 -3 4 -6 -2 -5 -13z"/>
<path d="M888 653 c7 -3 16 -2 19 1 4 3 -2 6 -13 5 -11 0 -14 -3 -6 -6z"/>
<path d="M590 640 c-9 -6 -10 -10 -3 -10 6 0 15 5 18 10 8 12 4 12 -15 0z"/>
<path d="M993 610 c0 -25 2 -35 4 -22 2 12 2 32 0 45 -2 12 -4 2 -4 -23z"/>
<path d="M744 495 c0 -82 2 -115 3 -72 2 43 2 110 0 150 -1 40 -3 5 -3 -78z"/>
<path d="M702 588 c0 -31 1 -31 9 -9 6 14 6 28 1 33 -5 5 -9 -5 -10 -24z"/>
<path d="M1075 610 c3 -5 8 -10 11 -10 2 0 4 5 4 10 0 6 -5 10 -11 10 -5 0 -7
-4 -4 -10z"/>
<path d="M1112 600 c0 -14 2 -19 5 -12 2 6 2 18 0 25 -3 6 -5 1 -5 -13z"/>
<path d="M1210 610 c-9 -6 -10 -10 -3 -10 6 0 15 5 18 10 8 12 4 12 -15 0z"/>
<path d="M1186 587 c3 -10 9 -15 12 -12 3 3 0 11 -7 18 -10 9 -11 8 -5 -6z"/>
<path d="M1210 556 c0 -20 2 -36 4 -36 8 0 12 61 4 66 -4 3 -8 -11 -8 -30z"/>
<path d="M1064 560 c0 -11 4 -20 8 -20 4 0 8 6 8 14 0 8 6 17 13 19 6 3 3 6
-8 6 -14 1 -21 -5 -21 -19z"/>
<path d="M548 553 c23 -2 61 -2 85 0 23 2 4 4 -43 4 -47 0 -66 -2 -42 -4z"/>
<path d="M1108 502 c-4 -16 -1 -18 21 -14 17 4 21 7 11 10 -8 3 -18 9 -21 14
-3 5 -8 1 -11 -10z"/>
<path d="M398 503 c7 -3 16 -2 19 1 4 3 -2 6 -13 5 -11 0 -14 -3 -6 -6z"/>
<path d="M1190 499 c0 -5 5 -7 10 -4 6 3 10 8 10 11 0 2 -4 4 -10 4 -5 0 -10
-5 -10 -11z"/>
<path d="M427 487 c-3 -8 1 -14 9 -14 16 0 19 13 5 21 -5 3 -11 0 -14 -7z"/>
<path d="M993 430 c0 -41 2 -58 4 -37 2 20 2 54 0 75 -2 20 -4 3 -4 -38z"/>
<path d="M512 438 c-14 -14 -16 -28 -3 -28 5 0 11 9 14 20 6 23 5 24 -11 8z"/>
<path d="M568 443 c7 -3 16 -2 19 1 4 3 -2 6 -13 5 -11 0 -14 -3 -6 -6z"/>
<path d="M1100 420 c0 -11 4 -20 9 -20 5 0 7 9 4 20 -3 11 -7 20 -9 20 -2 0
-4 -9 -4 -20z"/>
<path d="M562 410 c-11 -18 -10 -20 10 -19 13 0 18 3 11 5 -7 3 -9 12 -6 20 8
20 0 17 -15 -6z"/>
<path d="M722 400 c0 -19 2 -27 5 -17 2 9 2 25 0 35 -3 9 -5 1 -5 -18z"/>
<path d="M182 400 c0 -14 2 -19 5 -12 2 6 2 18 0 25 -3 6 -5 1 -5 -13z"/>
<path d="M215 379 c-4 -6 -4 -13 -1 -16 3 -4 6 -1 6 6 0 7 5 9 12 5 7 -4 8 -3
4 4 -9 15 -13 15 -21 1z"/>
<path d="M787 373 c-16 -15 -5 -23 31 -21 37 1 37 1 4 5 -18 2 -30 9 -27 14 7
10 1 12 -8 2z"/>
<path d="M1018 373 c7 -3 16 -2 19 1 4 3 -2 6 -13 5 -11 0 -14 -3 -6 -6z"/>
<path d="M1028 333 c12 -2 30 -2 40 0 9 3 -1 5 -23 4 -22 0 -30 -2 -17 -4z"/>
<path d="M563 323 c9 -2 25 -2 35 0 9 3 1 5 -18 5 -19 0 -27 -2 -17 -5z"/>
<path d="M638 323 c7 -3 16 -2 19 1 4 3 -2 6 -13 5 -11 0 -14 -3 -6 -6z"/>
<path d="M953 323 c9 -2 23 -2 30 0 6 3 -1 5 -18 5 -16 0 -22 -2 -12 -5z"/>
<path d="M312 266 c1 -15 8 -26 14 -26 7 0 10 8 7 20 -8 31 -23 35 -21 6z"/>
<path d="M860 256 c0 -22 11 -46 21 -46 6 0 6 8 0 19 -6 10 -8 21 -5 24 3 3 1
8 -5 12 -6 3 -11 0 -11 -9z"/>
<path d="M765 220 c-3 -5 -1 -10 4 -10 6 0 11 5 11 10 0 6 -2 10 -4 10 -3 0
-8 -4 -11 -10z"/>
<path d="M700 210 c-9 -6 -10 -10 -3 -10 6 0 15 5 18 10 8 12 4 12 -15 0z"/>
<path d="M670 195 c0 -5 5 -17 10 -25 7 -11 10 -11 10 -2 0 9 5 10 19 2 11 -5
31 -10 46 -10 14 0 24 -4 21 -8 -3 -5 1 -9 9 -9 8 0 14 3 13 6 -2 19 4 24 12
11 6 -9 10 -10 10 -3 0 15 -17 26 -24 15 -6 -10 -76 -3 -76 8 0 5 -8 7 -17 6
-10 -2 -21 2 -25 8 -5 6 -8 7 -8 1z"/>
<path d="M1120 180 c-9 -6 -10 -10 -3 -10 6 0 15 5 18 10 8 12 4 12 -15 0z"/>
<path d="M626 163 c-6 -14 -5 -15 5 -6 7 7 10 15 7 18 -3 3 -9 -2 -12 -12z"/>
<path d="M653 151 c-10 -16 -9 -18 7 -14 11 3 16 11 13 19 -7 18 -6 18 -20 -5z"/>
<path d="M1090 154 c0 -16 9 -18 28 -5 10 6 9 10 -7 14 -14 3 -21 0 -21 -9z"/>
<path d="M1048 153 c6 -2 18 -2 25 0 6 3 1 5 -13 5 -14 0 -19 -2 -12 -5z"/>
<path d="M488 143 c6 -2 18 -2 25 0 6 3 1 5 -13 5 -14 0 -19 -2 -12 -5z"/>
<path d="M690 136 c0 -2 8 -10 18 -17 15 -13 16 -12 3 4 -13 16 -21 21 -21 13z"/>
<path d="M960 113 c-14 -14 -19 -24 -11 -22 13 5 49 49 40 49 -2 0 -15 -12
-29 -27z"/>
<path d="M787 99 c7 -7 15 -10 18 -7 3 3 -2 9 -12 12 -14 6 -15 5 -6 -5z"/>
<path d="M738 93 c7 -3 16 -2 19 1 4 3 -2 6 -13 5 -11 0 -14 -3 -6 -6z"/>
<path d="M872 95 c3 -3 18 -8 34 -11 22 -3 25 -2 14 6 -15 10 -58 14 -48 5z"/>
<path d="M636 65 c8 -19 24 -19 24 0 0 8 -7 15 -15 15 -9 0 -12 -6 -9 -15z"/>
<path d="M708 53 c7 -3 16 -2 19 1 4 3 -2 6 -13 5 -11 0 -14 -3 -6 -6z"/>
</g>
<g transform="translate(0.000000,122.000000) scale(0.100000,-0.100000)"
fill="RGBA(211,199,189,255)" stroke="none">
<path d="M670 1119 c0 -5 5 -7 10 -4 6 3 10 8 10 11 0 2 -4 4 -10 4 -5 0 -10
-5 -10 -11z"/>
<path d="M728 1123 c7 -3 16 -2 19 1 4 3 -2 6 -13 5 -11 0 -14 -3 -6 -6z"/>
<path d="M828 1123 c7 -3 16 -2 19 1 4 3 -2 6 -13 5 -11 0 -14 -3 -6 -6z"/>
<path d="M712 1090 c0 -14 2 -19 5 -12 2 6 2 18 0 25 -3 6 -5 1 -5 -13z"/>
<path d="M634 1079 c-13 -5 -7 -8 24 -8 23 -1 42 1 42 3 0 8 -48 12 -66 5z"/>
<path d="M1038 1073 c7 -3 16 -2 19 1 4 3 -2 6 -13 5 -11 0 -14 -3 -6 -6z"/>
<path d="M558 1063 c7 -3 16 -2 19 1 4 3 -2 6 -13 5 -11 0 -14 -3 -6 -6z"/>
<path d="M752 1050 c0 -14 2 -19 5 -12 2 6 2 18 0 25 -3 6 -5 1 -5 -13z"/>
<path d="M390 1013 c0 -21 28 -27 45 -10 21 22 19 26 -15 25 -18 -1 -30 -6
-30 -15z"/>
<path d="M971 1014 c0 -11 3 -14 6 -6 3 7 2 16 -1 19 -3 4 -6 -2 -5 -13z"/>
<path d="M330 987 c0 -5 -4 -5 -10 -2 -5 3 -10 1 -10 -4 0 -6 -5 -11 -10 -11
-16 0 -55 -39 -47 -47 4 -3 7 -1 7 6 0 7 5 9 10 6 6 -3 10 -1 10 5 0 6 4 9 8
6 5 -3 21 1 35 9 15 8 29 14 30 13 7 -3 47 15 43 20 -9 8 -66 8 -66 -1z"/>
<path d="M381 961 c-18 -12 2 -23 26 -14 16 6 17 5 4 -13 -14 -18 -14 -18 3
-2 29 26 2 51 -33 29z"/>
<path d="M638 963 c7 -3 16 -2 19 1 4 3 -2 6 -13 5 -11 0 -14 -3 -6 -6z"/>
<path d="M865 960 l-130 -6 95 -3 c52 -2 107 -2 123 -1 l27 2 -2 -149 -2 -148
-6 135 c-4 102 -7 125 -13 95 -4 -22 -5 -50 -3 -62 3 -13 2 -23 -2 -23 -4 0
-8 -27 -8 -60 -1 -33 1 -58 5 -56 3 2 7 -40 7 -94 l2 -97 -80 -7 c-45 -4 -83
-5 -85 -2 -2 2 -6 32 -8 65 -4 55 -2 61 15 61 11 0 20 5 20 11 0 6 -9 9 -19 6
-13 -3 -21 1 -24 12 -3 9 -5 -26 -6 -76 l-1 -93 38 -1 c34 -1 67 0 135 4 l27
2 0 87 c0 73 3 88 16 88 8 0 12 5 9 10 -4 6 -1 17 5 25 8 10 10 39 6 92 -3 43
-7 104 -8 136 -2 31 -3 56 -3 55 0 -1 -58 -5 -130 -8z"/>
<path d="M1053 963 c9 -2 23 -2 30 0 6 3 -1 5 -18 5 -16 0 -22 -2 -12 -5z"/>
<path d="M558 923 c17 -2 47 -2 65 0 17 2 3 4 -33 4 -36 0 -50 -2 -32 -4z"/>
<path d="M741 914 c0 -11 3 -14 6 -6 3 7 2 16 -1 19 -3 4 -6 -2 -5 -13z"/>
<path d="M399 901 c0 -3 -2 -14 -4 -24 -2 -10 1 -14 8 -10 6 4 8 0 4 -10 -3
-9 -2 -19 2 -22 13 -7 21 21 9 33 -6 6 -6 12 1 16 6 4 11 11 11 15 0 9 -30 11
-31 2z"/>
<path d="M472 890 c0 -14 2 -19 5 -12 2 6 2 18 0 25 -3 6 -5 1 -5 -13z"/>
<path d="M1242 885 c0 -16 2 -22 5 -12 2 9 2 23 0 30 -3 6 -5 -1 -5 -18z"/>
<path d="M774 810 c0 -52 1 -74 3 -47 2 26 2 68 0 95 -2 26 -3 4 -3 -48z"/>
<path d="M110 869 c0 -5 5 -7 10 -4 6 3 10 8 10 11 0 2 -4 4 -10 4 -5 0 -10
-5 -10 -11z"/>
<path d="M501 863 c0 -11 3 -13 6 -5 2 6 9 10 14 6 5 -3 9 0 9 5 0 6 -7 11
-15 11 -8 0 -15 -8 -14 -17z"/>
<path d="M540 870 c0 -5 5 -10 10 -10 6 0 10 5 10 10 0 6 -4 10 -10 10 -5 0
-10 -4 -10 -10z"/>
<path d="M597 869 c8 -8 16 -8 30 0 16 9 14 10 -11 11 -22 0 -27 -3 -19 -11z"/>
<path d="M660 873 c0 -6 7 -14 16 -17 8 -3 12 -10 9 -16 -3 -5 -1 -10 4 -10
17 0 13 15 -9 35 -11 10 -20 13 -20 8z"/>
<path d="M1223 845 c0 -22 2 -30 4 -17 2 12 2 30 0 40 -3 9 -5 -1 -4 -23z"/>
<path d="M251 789 c1 -35 5 -77 9 -94 4 -16 5 11 2 60 -6 105 -13 127 -11 34z"/>
<path d="M438 803 c-2 -29 -8 -48 -17 -51 -10 -3 -12 0 -7 13 5 15 4 16 -9 5
-11 -9 -15 -30 -13 -84 l2 -71 6 70 6 70 2 -97 c1 -60 6 -98 12 -98 7 0 9 32
6 90 -2 49 0 92 4 95 5 3 11 -5 13 -17 2 -13 5 10 6 50 1 80 -6 98 -11 25z"/>
<path d="M91 813 c0 -16 4 -37 9 -48 6 -14 8 -6 7 28 -1 26 -5 47 -9 47 -4 0
-8 -12 -7 -27z"/>
<path d="M221 824 c0 -11 3 -14 6 -6 3 7 2 16 -1 19 -3 4 -6 -2 -5 -13z"/>
<path d="M294 738 c0 -59 4 -115 8 -125 5 -10 6 19 3 63 -6 80 -6 82 19 88 13
3 32 3 40 0 11 -4 16 -1 16 10 0 16 -17 16 -67 1 -7 -3 -14 11 -16 33 -3 20
-4 -11 -3 -70z"/>
<path d="M191 814 c0 -11 3 -14 6 -6 3 7 2 16 -1 19 -3 4 -6 -2 -5 -13z"/>
<path d="M223 760 c0 -25 2 -35 4 -22 2 12 2 32 0 45 -2 12 -4 2 -4 -23z"/>
<path d="M495 781 c-3 -5 -1 -12 5 -16 5 -3 10 1 10 9 0 18 -6 21 -15 7z"/>
<path d="M714 700 c0 -52 1 -74 3 -47 2 26 2 68 0 95 -2 26 -3 4 -3 -48z"/>
<path d="M1143 765 c-8 -9 -9 -15 0 -24 8 -8 8 -11 -1 -11 -7 0 -12 -10 -12
-22 0 -20 1 -21 16 -7 9 10 14 29 12 47 -2 23 -6 27 -15 17z"/>
<path d="M192 740 c0 -14 2 -19 5 -12 2 6 2 18 0 25 -3 6 -5 1 -5 -13z"/>
<path d="M730 750 c0 -5 5 -10 10 -10 6 0 10 5 10 10 0 6 -4 10 -10 10 -5 0
-10 -4 -10 -10z"/>
<path d="M1102 735 c0 -16 2 -22 5 -12 2 9 2 23 0 30 -3 6 -5 -1 -5 -18z"/>
<path d="M101 724 c0 -11 3 -14 6 -6 3 7 2 16 -1 19 -3 4 -6 -2 -5 -13z"/>
<path d="M730 714 c0 -8 5 -12 10 -9 6 3 10 10 10 16 0 5 -4 9 -10 9 -5 0 -10
-7 -10 -16z"/>
<path d="M173 685 c0 -22 2 -30 4 -17 2 12 2 30 0 40 -3 9 -5 -1 -4 -23z"/>
<path d="M1070 710 c0 -5 5 -10 11 -10 5 0 7 5 4 10 -3 6 -8 10 -11 10 -2 0
-4 -4 -4 -10z"/>
<path d="M152 690 c0 -14 2 -19 5 -12 2 6 2 18 0 25 -3 6 -5 1 -5 -13z"/>
<path d="M202 685 c0 -16 2 -22 5 -12 2 9 2 23 0 30 -3 6 -5 -1 -5 -18z"/>
<path d="M220 700 c0 -5 5 -10 10 -10 6 0 10 5 10 10 0 6 -4 10 -10 10 -5 0
-10 -4 -10 -10z"/>
<path d="M1095 690 c-3 -5 1 -10 10 -10 9 0 13 5 10 10 -3 6 -8 10 -10 10 -2
0 -7 -4 -10 -10z"/>
<path d="M502 678 c6 -18 25 -21 25 -3 0 8 -7 15 -14 15 -8 0 -13 -5 -11 -12z"/>
<path d="M732 595 l1 -100 7 80 c3 44 3 89 -1 100 -4 11 -7 -25 -7 -80z"/>
<path d="M1251 664 c0 -11 3 -14 6 -6 3 7 2 16 -1 19 -3 4 -6 -2 -5 -13z"/>
<path d="M91 654 c0 -11 3 -14 6 -6 3 7 2 16 -1 19 -3 4 -6 -2 -5 -13z"/>
<path d="M818 653 c12 -2 32 -2 45 0 12 2 2 4 -23 4 -25 0 -35 -2 -22 -4z"/>
<path d="M118 633 c6 -2 12 -21 13 -41 0 -20 3 -31 6 -24 2 6 11 12 19 12 8 0
14 9 14 21 0 15 -5 19 -16 15 -8 -3 -13 -2 -10 3 5 8 -17 22 -32 20 -4 0 -1
-3 6 -6z"/>
<path d="M982 615 c0 -16 2 -22 5 -12 2 9 2 23 0 30 -3 6 -5 -1 -5 -18z"/>
<path d="M1161 637 c2 -1 13 -9 24 -17 19 -14 19 -14 6 3 -7 9 -18 17 -24 17
-6 0 -8 -1 -6 -3z"/>
<path d="M1223 602 c-1 -22 0 -24 9 -8 6 10 6 22 2 26 -5 5 -10 -3 -11 -18z"/>
<path d="M183 585 c0 -22 2 -30 4 -17 2 12 2 30 0 40 -3 9 -5 -1 -4 -23z"/>
<path d="M327 589 c15 -15 65 -16 69 -1 1 7 0 8 -2 3 -3 -5 -20 -5 -41 -1 -23
6 -32 5 -26 -1z"/>
<path d="M1150 582 c0 -14 -2 -14 -9 -3 -7 11 -10 9 -13 -9 -3 -27 -28 -40
-28 -16 0 9 -4 16 -10 16 -18 0 -11 -25 10 -38 15 -9 26 -10 38 -3 11 7 12 11
4 11 -7 0 -10 5 -6 11 4 6 19 9 36 5 25 -5 29 -3 24 11 -4 9 -2 19 4 23 6 4
-3 7 -19 8 -23 0 -31 -4 -31 -16z"/>
<path d="M211 574 c0 -11 3 -14 6 -6 3 7 2 16 -1 19 -3 4 -6 -2 -5 -13z"/>
<path d="M441 574 c0 -11 3 -14 6 -6 3 7 2 16 -1 19 -3 4 -6 -2 -5 -13z"/>
<path d="M313 505 c0 -38 2 -53 4 -32 2 20 2 52 0 70 -2 17 -4 1 -4 -38z"/>
<path d="M1022 550 c0 -14 2 -19 5 -12 2 6 2 18 0 25 -3 6 -5 1 -5 -13z"/>
<path d="M1030 513 c0 -6 8 -17 18 -24 16 -13 16 -13 2 6 -8 11 -16 22 -17 24
-2 2 -3 0 -3 -6z"/>
<path d="M1126 512 c-2 -4 7 -13 21 -19 25 -12 25 -12 8 7 -20 22 -22 23 -29
12z"/>
<path d="M400 490 c19 -13 30 -13 30 0 0 6 -10 10 -22 10 -19 0 -20 -2 -8 -10z"/>
<path d="M1189 487 c5 -5 24 -7 42 -5 33 3 33 4 -8 8 -23 3 -39 2 -34 -3z"/>
<path d="M670 476 c0 -2 15 -6 34 -8 19 -2 32 0 30 4 -5 8 -64 12 -64 4z"/>
<path d="M1003 420 c0 -30 2 -43 4 -27 2 15 2 39 0 55 -2 15 -4 2 -4 -28z"/>
<path d="M840 440 c0 -5 5 -10 11 -10 5 0 7 5 4 10 -3 6 -8 10 -11 10 -2 0 -4
-4 -4 -10z"/>
<path d="M1093 433 c-3 -10 -8 -21 -10 -25 -2 -5 0 -8 5 -8 5 0 12 11 14 25 6
29 0 33 -9 8z"/>
<path d="M626 433 c-3 -4 -6 -11 -6 -17 0 -6 4 -4 10 4 5 8 12 11 16 7 4 -3 1
-13 -6 -22 -7 -8 -9 -15 -6 -15 10 0 31 23 33 36 2 11 -31 16 -41 7z"/>
<path d="M888 433 c7 -3 16 -2 19 1 4 3 -2 6 -13 5 -11 0 -14 -3 -6 -6z"/>
<path d="M963 425 c0 -8 4 -15 9 -15 4 0 8 4 8 9 0 6 -4 12 -8 15 -5 3 -9 -1
-9 -9z"/>
<path d="M307 413 c4 -11 2 -14 -5 -9 -7 4 -12 5 -12 2 0 -3 9 -10 19 -16 17
-8 20 -7 18 10 -1 11 -7 22 -14 24 -8 3 -10 -1 -6 -11z"/>
<path d="M770 400 c0 -13 3 -20 7 -17 3 4 13 1 22 -5 10 -8 8 -3 -4 12 -11 14
-21 27 -22 29 -2 2 -3 -6 -3 -19z"/>
<path d="M352 370 c0 -14 2 -19 5 -12 2 6 2 18 0 25 -3 6 -5 1 -5 -13z"/>
<path d="M381 374 c0 -11 3 -14 6 -6 3 7 2 16 -1 19 -3 4 -6 -2 -5 -13z"/>
<path d="M955 381 c-3 -5 -2 -12 3 -15 5 -3 9 1 9 9 0 17 -3 19 -12 6z"/>
<path d="M1063 373 c15 -2 39 -2 55 0 15 2 2 4 -28 4 -30 0 -43 -2 -27 -4z"/>
<path d="M563 363 c32 -2 81 -2 110 0 29 2 3 3 -58 3 -60 0 -84 -1 -52 -3z"/>
<path d="M851 356 c4 -4 35 -8 70 -11 35 -2 65 -9 67 -14 2 -6 9 -11 15 -11 7
0 5 6 -4 15 -15 15 -161 36 -148 21z"/>
<path d="M736 335 c4 -9 18 -14 38 -14 30 2 30 2 4 6 -16 2 -28 9 -28 14 0 5
-4 9 -10 9 -5 0 -7 -7 -4 -15z"/>
<path d="M476 322 c-3 -5 8 -6 25 -4 16 2 29 6 29 8 0 8 -49 4 -54 -4z"/>
<path d="M848 323 c17 -2 47 -2 65 0 17 2 3 4 -33 4 -36 0 -50 -2 -32 -4z"/>
<path d="M630 191 c0 -6 4 -13 10 -16 6 -3 7 1 4 9 -7 18 -14 21 -14 7z"/>
<path d="M798 103 c7 -3 16 -2 19 1 4 3 -2 6 -13 5 -11 0 -14 -3 -6 -6z"/>
</g>
<g transform="translate(0.000000,122.000000) scale(0.100000,-0.100000)"
fill="RGBA(249,248,242,255)" stroke="none">
<path d="M717 1097 c4 -22 1 -23 -49 -25 -157 -6 -246 -43 -232 -97 4 -15 9
-133 13 -263 l6 -237 140 0 140 0 -3 219 c-2 146 0 222 7 229 8 8 11 -75 11
-286 l0 -297 63 2 62 2 -52 3 c-29 2 -53 8 -53 14 0 5 5 9 10 9 6 0 10 5 10
11 0 5 -4 7 -10 4 -6 -3 -10 4 -10 16 0 21 1 21 21 -5 18 -23 28 -26 80 -26
33 0 69 5 80 10 15 8 19 8 17 -2 -4 -17 -26 -26 -62 -27 -16 -1 -27 -4 -23 -7
3 -3 29 -3 57 1 l52 7 -4 149 c-3 159 -18 208 -18 61 l0 -87 -27 -2 c-68 -4
-101 -5 -135 -4 l-38 1 2 108 c0 59 3 93 5 76 3 -26 8 -31 24 -27 10 3 19 0
19 -6 0 -6 -9 -11 -20 -11 -17 0 -19 -6 -15 -61 2 -33 6 -63 8 -65 2 -3 41 -2
85 2 l81 7 -2 97 c-2 95 -3 97 -20 79 -14 -15 -32 -19 -77 -19 -72 0 -72 0
-68 145 l3 100 70 0 70 0 3 -50 c2 -27 6 -44 10 -38 4 6 5 34 4 62 l-4 51 -84
0 -84 0 -2 -102 -2 -103 -5 100 c-3 55 -2 105 2 112 5 7 39 14 80 16 61 2 56
3 -30 5 -160 3 -128 22 37 22 128 0 139 -1 133 -17 -6 -17 -5 -17 14 0 17 15
32 16 106 11 47 -4 91 -10 98 -14 8 -5 14 -61 18 -176 6 -163 0 -245 -21 -271
-8 -10 -3 -13 22 -13 l32 0 -7 168 c-12 292 -19 353 -43 373 -19 15 -83 30
-179 43 -40 5 -53 13 -53 32 0 11 -24 14 -134 14 l-133 0 4 -23z m256 -49 c3
-24 2 -47 -2 -51 -4 -4 -57 -6 -117 -5 l-109 3 -3 33 c-6 61 -3 62 116 62
l109 0 6 -42z m-280 -90 c15 -11 17 -37 20 -201 2 -158 0 -189 -13 -197 -8 -5
-54 -10 -102 -10 -66 0 -90 4 -102 16 -16 15 -17 38 -19 322 0 28 3 55 7 60 6
6 42 10 172 20 11 1 28 -4 37 -10z m233 -515 c-10 -10 -86 -12 -86 -2 0 5 21
9 47 9 25 0 43 -3 39 -7z m54 -24 c0 -5 -4 -9 -8 -9 -5 0 -9 7 -9 15 0 8 4 12
9 9 4 -3 8 -9 8 -15z"/>
<path d="M760 1040 l0 -40 101 0 100 0 -3 38 -3 37 -97 3 -98 3 0 -41z"/>
<path d="M533 908 c2 -9 24 -13 60 -13 39 0 57 4 57 13 0 8 -19 12 -61 12 -44
0 -60 -3 -56 -12z"/>
<path d="M530 872 c0 -7 -4 -10 -10 -7 -5 3 -10 2 -10 -4 0 -5 39 -11 89 -13
86 -3 89 -2 70 15 -15 14 -23 16 -40 7 -15 -9 -24 -8 -35 1 -11 9 -14 9 -14
-2 0 -12 -2 -12 -9 0 -7 11 -9 11 -14 0 -4 -12 -7 -11 -16 1 -8 11 -11 12 -11
2z"/>
<path d="M500 737 c0 -13 7 -30 16 -38 14 -11 15 -9 12 21 -4 39 -28 54 -28
17z"/>
<path d="M949 933 c19 -16 21 -30 24 -148 l3 -130 2 148 2 147 -26 0 -26 0 21
-17z"/>
<path d="M220 920 c-8 -5 -10 -10 -5 -10 6 0 17 5 25 10 8 5 11 10 5 10 -5 0
-17 -5 -25 -10z"/>
<path d="M362 850 c0 -14 2 -19 5 -12 2 6 2 18 0 25 -3 6 -5 1 -5 -13z"/>
<path d="M419 843 c-6 -56 -5 -93 2 -93 5 0 9 23 9 50 0 28 -2 50 -5 50 -3 0
-5 -3 -6 -7z"/>
<path d="M943 755 c0 -22 2 -30 4 -17 2 12 2 30 0 40 -3 9 -5 -1 -4 -23z"/>
<path d="M90 760 c-1 -14 -4 -50 -6 -80 -3 -30 -3 -52 0 -49 10 10 22 116 15
135 -7 17 -8 16 -9 -6z"/>
<path d="M1082 735 c0 -16 2 -22 5 -12 2 9 2 23 0 30 -3 6 -5 -1 -5 -18z"/>
<path d="M1110 725 c0 -19 5 -35 10 -35 6 0 10 16 10 35 0 19 -4 35 -10 35 -5
0 -10 -16 -10 -35z"/>
<path d="M892 720 c0 -19 2 -27 5 -17 2 9 2 25 0 35 -3 9 -5 1 -5 -18z"/>
<path d="M1001 584 l-1 -111 24 4 c22 5 23 6 9 33 -7 16 -18 64 -22 107 l-8
78 -2 -111z"/>
<path d="M1130 617 c0 -21 4 -23 37 -19 l37 5 -23 18 c-31 26 -51 24 -51 -4z"/>
<path d="M1201 573 c-1 -19 -5 -22 -29 -17 -19 4 -32 1 -41 -10 -12 -14 -11
-16 4 -9 14 5 17 3 13 -9 -4 -9 -1 -21 5 -27 8 -8 4 -11 -15 -11 -20 0 -28 6
-31 23 l-4 22 -2 -23 c-1 -26 19 -37 54 -28 33 8 58 48 52 83 -3 21 -4 23 -6
6z"/>
<path d="M1082 441 c-8 -5 -12 -17 -10 -27 2 -15 5 -13 15 9 14 30 14 30 -5
18z"/>
<path d="M643 433 c-17 -6 -17 -30 0 -30 7 0 13 9 13 19 0 10 0 18 -1 17 0 0
-6 -3 -12 -6z"/>
<path d="M732 405 c0 -16 2 -22 5 -12 2 9 2 23 0 30 -3 6 -5 -1 -5 -18z"/>
<path d="M360 369 c0 -17 4 -28 10 -24 6 3 10 17 10 31 0 13 -4 24 -10 24 -5
0 -10 -14 -10 -31z"/>
<path d="M1075 371 c-51 -4 -71 -10 -72 -21 -2 -13 14 -14 118 -10 70 3 124 1
130 -4 5 -6 9 0 9 17 0 26 -1 27 -57 25 -32 -1 -89 -4 -128 -7z"/>
<path d="M588 363 c-125 -3 -138 -5 -138 -22 0 -24 11 -33 26 -20 8 6 60 9
137 7 123 -3 125 -3 125 20 0 12 -3 21 -7 20 -3 -1 -68 -4 -143 -5z"/>
<path d="M681 194 c0 -11 3 -14 6 -6 3 7 2 16 -1 19 -3 4 -6 -2 -5 -13z"/>
</g>
<g transform="translate(0.000000,122.000000) scale(0.100000,-0.100000)"
fill="RGBA(28,102,171,255)" stroke="none">
<path d="M494 656 c-3 -7 -4 -31 -2 -52 l3 -39 103 -3 c77 -2 102 0 103 10 7
94 6 98 -17 98 -12 0 -30 -7 -39 -16 -9 -9 -19 -14 -22 -10 -3 3 -12 1 -20 -6
-7 -6 -16 -8 -20 -4 -3 3 -1 6 5 6 7 0 12 7 12 15 0 11 -11 15 -36 15 -23 0
-33 -4 -28 -11 4 -8 0 -8 -15 0 -17 10 -22 9 -27 -3z"/>
<path d="M1010 634 c0 -54 11 -69 33 -44 9 11 14 20 11 20 -4 0 8 13 26 29
l33 29 -33 -4 c-18 -2 -36 -6 -38 -9 -3 -3 -11 0 -19 6 -10 9 -13 4 -13 -27z"/>
<path d="M1160 660 c-8 -5 -10 -10 -5 -10 15 0 66 -46 60 -54 -3 -3 -2 -4 2
-1 3 3 8 21 10 40 3 32 2 35 -24 35 -15 0 -35 -5 -43 -10z"/>
<path d="M400 535 c0 -14 4 -25 9 -25 5 0 17 -3 25 -6 14 -5 15 -2 7 19 -5 14
-7 28 -4 31 4 3 -3 6 -15 6 -17 0 -22 -6 -22 -25z"/>
</g>
<g transform="translate(0.000000,122.000000) scale(0.100000,-0.100000)"
fill="RGBA(68,64,54,255)" stroke="none">
<path d="M640 1100 c-9 -16 -8 -18 5 -14 8 4 15 12 15 20 0 20 -7 17 -20 -6z"/>
<path d="M803 1083 c32 -2 81 -2 110 0 29 2 3 3 -58 3 -60 0 -84 -1 -52 -3z"/>
<path d="M465 1050 c-3 -6 1 -7 9 -4 18 7 21 14 7 14 -6 0 -13 -4 -16 -10z"/>
<path d="M793 963 c37 -2 97 -2 135 0 37 2 6 3 -68 3 -74 0 -105 -1 -67 -3z"/>
<path d="M555 952 c-27 -2 -55 -7 -61 -13 -14 -12 0 -109 18 -120 8 -5 15 -37
18 -76 4 -55 8 -68 23 -69 12 -1 13 -1 2 3 -18 5 -20 23 -2 23 8 0 7 4 -3 10
-13 9 -12 12 4 25 17 13 17 15 3 15 -11 0 -14 5 -10 17 4 11 8 12 11 5 6 -20
21 -14 15 7 -3 10 -1 21 5 24 5 4 10 -22 11 -60 1 -37 5 -71 7 -75 8 -13 34
11 28 27 -3 7 7 17 25 23 31 11 43 0 17 -15 -7 -4 -19 -19 -26 -33 l-13 -25
28 25 c16 14 25 19 21 13 -4 -7 -2 -13 3 -13 17 0 14 148 -3 165 -15 15 -146
16 -146 1 0 -5 -7 -3 -15 4 -8 7 -15 19 -15 26 0 11 20 14 90 14 53 0 90 -4
90 -10 0 -5 3 -10 8 -10 4 0 8 20 8 45 2 49 -9 58 -62 53 -16 -2 -51 -4 -79
-6z m105 -42 c0 -18 -7 -20 -70 -20 -38 0 -70 2 -70 4 0 28 16 36 76 36 57 0
64 -2 64 -20z m-53 -162 c-3 -8 -6 -5 -6 6 -1 11 2 17 5 13 3 -3 4 -12 1 -19z
m63 2 c0 -5 -2 -10 -4 -10 -3 0 -8 5 -11 10 -3 6 -1 10 4 10 6 0 11 -4 11 -10z"/>
<path d="M1015 947 c-7 -18 1 -179 10 -199 8 -19 55 -25 55 -8 0 6 -7 10 -15
10 -8 0 -15 4 -15 10 0 5 -7 7 -15 4 -8 -4 -15 -1 -15 5 0 13 20 14 40 1 9 -6
17 -5 22 3 5 8 8 8 8 1 0 -7 11 -9 26 -6 14 2 23 10 21 16 -19 44 -19 46 -3
46 9 0 16 -8 16 -19 0 -10 7 -24 15 -31 12 -10 15 -10 15 3 0 8 4 17 9 19 15
5 22 138 8 143 -7 2 -49 6 -95 9 -60 4 -84 2 -87 -7z m101 -152 c13 -13 13
-15 1 -15 -8 0 -17 7 -21 15 -3 8 -3 15 0 15 3 0 12 -7 20 -15z"/>
<path d="M361 908 c-1 -28 12 -37 24 -18 3 6 2 10 -4 10 -5 0 -12 8 -14 18 -3
10 -5 6 -6 -10z"/>
<path d="M796 881 c-7 -11 1 -197 9 -211 3 -5 25 -10 48 -9 23 0 36 3 30 6 -8
3 -13 23 -13 49 0 38 3 44 21 44 19 0 21 -5 17 -50 -3 -52 1 -60 21 -36 9 10
10 43 5 115 l-7 101 -63 0 c-34 0 -65 -4 -68 -9z m107 -96 c-3 -9 -8 -14 -10
-11 -3 3 -2 9 2 15 9 16 15 13 8 -4z"/>
<path d="M381 854 c0 -11 3 -14 6 -6 3 7 2 16 -1 19 -3 4 -6 -2 -5 -13z"/>
<path d="M302 840 c0 -14 2 -19 5 -12 2 6 2 18 0 25 -3 6 -5 1 -5 -13z"/>
<path d="M273 780 c0 -36 2 -50 4 -32 2 17 2 47 0 65 -2 17 -4 3 -4 -33z"/>
<path d="M382 810 c0 -14 2 -19 5 -12 2 6 2 18 0 25 -3 6 -5 1 -5 -13z"/>
<path d="M183 770 c0 -30 2 -43 4 -27 2 15 2 39 0 55 -2 15 -4 2 -4 -28z"/>
<path d="M211 804 c0 -11 3 -14 6 -6 3 7 2 16 -1 19 -3 4 -6 -2 -5 -13z"/>
<path d="M237 734 c3 -116 13 -120 12 -5 0 50 -3 91 -7 91 -4 0 -6 -39 -5 -86z"/>
<path d="M314 799 c-3 -5 6 -9 20 -9 31 0 34 6 6 13 -11 3 -23 1 -26 -4z"/>
<path d="M131 784 c0 -11 3 -14 6 -6 3 7 2 16 -1 19 -3 4 -6 -2 -5 -13z"/>
<path d="M311 744 c0 -11 3 -14 6 -6 3 7 2 16 -1 19 -3 4 -6 -2 -5 -13z"/>
<path d="M200 730 c0 -5 5 -10 10 -10 6 0 10 5 10 10 0 6 -4 10 -10 10 -5 0
-10 -4 -10 -10z"/>
<path d="M882 710 c0 -19 2 -27 5 -17 2 9 2 25 0 35 -3 9 -5 1 -5 -18z"/>
<path d="M1161 714 c-1 -30 -2 -31 -53 -32 -40 -2 -49 1 -38 9 12 8 12 9 -5 6
-11 -2 -19 -9 -17 -15 1 -7 -5 -12 -13 -12 -8 0 -15 5 -15 12 0 6 -3 8 -6 5
-4 -4 -1 -13 5 -21 9 -11 19 -12 35 -6 12 4 29 5 37 0 24 -13 113 5 103 21 -3
5 -10 6 -16 3 -7 -5 -9 -2 -6 7 3 8 2 23 -3 34 -6 17 -8 15 -8 -11z"/>
<path d="M1013 714 c0 -8 6 -14 14 -14 7 0 13 4 13 9 0 5 -6 11 -13 14 -8 3
-14 -1 -14 -9z"/>
<path d="M1195 717 c-4 -10 -5 -21 -1 -24 10 -10 18 4 13 24 -4 17 -4 17 -12
0z"/>
<path d="M106 655 c4 -8 10 -15 15 -15 4 0 6 7 3 15 -4 8 -10 15 -15 15 -4 0
-6 -7 -3 -15z"/>
<path d="M112 595 c0 -16 2 -22 5 -12 2 9 2 23 0 30 -3 6 -5 -1 -5 -18z"/>
<path d="M321 564 c0 -11 3 -14 6 -6 3 7 2 16 -1 19 -3 4 -6 -2 -5 -13z"/>
<path d="M118 478 c-3 -7 2 -19 11 -26 9 -8 10 -11 4 -7 -18 9 -16 0 12 -53
14 -26 25 -40 25 -32 0 9 -7 26 -16 38 -18 26 -7 30 12 5 12 -16 13 -15 14 12
1 30 1 29 26 -15 13 -25 22 -36 19 -24 -4 14 -1 21 9 21 9 0 13 -4 10 -9 -3
-5 1 -20 10 -33 9 -13 16 -32 16 -42 0 -11 3 -14 8 -7 4 6 15 11 25 11 9 0 15
-2 13 -4 -2 -3 2 -19 9 -38 8 -18 11 -36 7 -40 -4 -5 -1 -5 6 -1 6 4 12 14 12
22 0 17 16 19 26 3 4 -7 7 -25 8 -42 1 -21 7 -32 23 -38 21 -8 26 3 11 26 -4
6 -3 17 2 25 9 15 11 14 22 -30 3 -9 10 -3 20 18 9 18 12 34 7 38 -5 3 -9 10
-9 15 0 6 4 8 8 5 4 -2 8 3 9 12 1 12 -10 21 -32 28 -29 9 -34 8 -38 -8 -5
-17 -6 -17 -37 -1 -18 11 -33 29 -37 44 -3 19 -18 33 -49 48 -24 12 -48 19
-54 16 -6 -4 -9 -1 -8 6 4 18 -99 74 -104 57z m186 -147 c-2 -2 -11 4 -20 14
-15 14 -15 18 -3 26 10 6 16 2 20 -14 3 -12 4 -24 3 -26z m156 -87 c0 -8 -4
-12 -10 -9 -5 3 -10 13 -10 21 0 8 5 12 10 9 6 -3 10 -13 10 -21z"/>
<path d="M1100 463 c8 -2 21 -6 28 -9 7 -2 10 -9 6 -15 -4 -8 -9 -7 -15 2 -6
10 -9 8 -9 -7 0 -17 6 -22 23 -20 17 1 23 7 22 21 -1 11 2 23 7 26 5 3 -10 6
-34 7 -24 0 -36 -2 -28 -5z"/>
<path d="M1167 444 c-9 -9 4 -34 18 -34 14 0 27 25 18 34 -4 3 -12 6 -18 6 -6
0 -14 -3 -18 -6z"/>
<path d="M527 434 c-14 -15 -6 -34 14 -34 14 0 19 5 17 17 -3 18 -20 27 -31
17z"/>
<path d="M828 363 c6 -2 18 -2 25 0 6 3 1 5 -13 5 -14 0 -19 -2 -12 -5z"/>
<path d="M188 353 c7 -3 16 -2 19 1 4 3 -2 6 -13 5 -11 0 -14 -3 -6 -6z"/>
<path d="M858 333 c6 -2 18 -2 25 0 6 3 1 5 -13 5 -14 0 -19 -2 -12 -5z"/>
<path d="M998 323 c-15 -4 -18 -15 -16 -56 1 -36 2 -42 5 -19 2 17 8 32 12 32
5 0 11 11 13 25 3 14 5 24 4 24 0 -1 -9 -3 -18 -6z"/>
<path d="M817 311 c-10 -4 -18 -11 -18 -16 0 -6 -2 -18 -5 -29 -3 -10 -1 -23
5 -29 8 -8 11 -8 11 2 0 8 7 10 20 6 15 -5 20 -2 20 12 0 15 -2 16 -10 3 -7
-11 -10 -11 -10 -2 0 7 -4 10 -10 7 -5 -3 -10 -3 -10 2 0 4 17 13 37 20 29 9
39 9 45 0 4 -7 4 -13 -1 -15 -4 -1 -6 -16 -3 -32 4 -29 3 -30 -27 -24 -23 5
-31 3 -31 -7 0 -12 -2 -12 -9 0 -5 8 -11 9 -15 3 -3 -6 -15 -8 -26 -5 -15 4
-20 14 -20 39 0 18 -5 36 -10 39 -6 4 -8 11 -5 16 4 5 1 9 -4 9 -13 0 -14 -30
-1 -50 12 -19 -6 -41 -28 -33 -13 3 -14 2 -4 -4 7 -6 14 -20 15 -31 1 -24 15
-27 64 -13 20 6 35 6 38 0 4 -5 15 -4 28 3 12 6 23 11 25 10 1 -1 8 -2 16 -2
11 0 13 10 9 40 -5 33 -3 40 11 40 10 0 16 9 16 25 0 23 -3 25 -47 24 -27 0
-56 -4 -66 -8z"/>
<path d="M1244 295 c7 -37 16 -44 16 -12 0 14 -5 29 -10 32 -7 4 -9 -3 -6 -20z"/>
<path d="M517 284 c-4 -4 -7 -31 -7 -60 0 -43 3 -52 15 -48 8 4 15 14 16 23 0
11 3 9 9 -6 7 -18 17 -23 45 -23 24 0 35 4 35 15 0 19 9 19 31 -1 17 -16 18
-15 10 12 -5 16 -12 36 -15 44 -5 11 -1 16 14 16 11 0 20 -4 20 -9 0 -4 4 -6
9 -3 5 4 8 14 7 24 -2 14 -16 17 -92 20 -50 1 -93 -1 -97 -4z m23 -14 c0 -5
-5 -10 -11 -10 -5 0 -7 5 -4 10 3 6 8 10 11 10 2 0 4 -4 4 -10z m100 0 c0 -11
-28 -17 -64 -11 -16 2 -23 7 -17 11 18 10 81 11 81 0z m-5 -30 c-3 -5 -10 -10
-16 -10 -5 0 -9 5 -9 10 0 6 7 10 16 10 8 0 12 -4 9 -10z"/>
<path d="M1130 240 c0 -5 -7 -7 -15 -4 -8 4 -15 1 -15 -5 0 -7 -8 -7 -26 -1
-37 14 -43 13 -54 -15 -10 -27 -2 -65 10 -45 3 6 33 13 66 16 33 3 64 12 70
20 13 17 25 8 17 -13 -4 -11 -1 -14 8 -11 8 2 15 19 17 36 3 31 2 32 -37 32
-23 0 -41 -4 -41 -10z"/>
<path d="M920 205 c0 -14 5 -25 10 -25 6 0 10 6 10 13 0 8 3 8 8 1 4 -6 15
-13 25 -17 21 -8 23 15 2 33 -8 7 -15 9 -15 6 0 -4 -9 -2 -20 4 -18 9 -20 8
-20 -15z"/>
<path d="M447 167 c-3 -9 -2 -19 4 -23 15 -9 18 -2 9 20 -6 17 -7 18 -13 3z"/>
<path d="M864 165 c1 -5 10 -9 20 -7 9 2 16 -2 16 -8 0 -10 -33 -13 -145 -11
l-60 1 25 -21 c15 -12 32 -18 45 -15 75 19 80 20 68 5 -10 -13 -7 -14 22 -11
24 3 35 10 36 21 0 11 3 9 9 -6 12 -29 31 -29 58 0 24 25 28 37 12 37 -5 0
-10 -7 -10 -15 0 -8 -9 -15 -20 -15 -13 0 -18 5 -14 15 4 8 -1 17 -10 21 -9 3
-14 9 -12 13 2 3 -7 6 -20 6 -13 0 -22 -4 -20 -10z"/>
<path d="M1033 143 c9 -2 23 -2 30 0 6 3 -1 5 -18 5 -16 0 -22 -2 -12 -5z"/>
<path d="M1080 140 c0 -6 7 -10 15 -10 8 0 15 2 15 4 0 2 -7 6 -15 10 -8 3
-15 1 -15 -4z"/>
<path d="M651 126 c-1 -13 -6 -16 -18 -11 -15 5 -16 4 -5 -6 15 -16 37 2 29
23 -4 8 -6 6 -6 -6z"/>
<path d="M1093 113 c9 -2 15 -9 12 -14 -4 -5 -2 -9 3 -9 6 0 12 7 16 15 4 11
-2 15 -22 14 -17 -1 -20 -3 -9 -6z"/>
<path d="M955 90 c-3 -5 -21 -10 -38 -10 -21 0 -28 -3 -19 -9 8 -4 13 -12 13
-17 -1 -10 5 -10 36 1 13 4 21 15 20 26 -1 22 -3 23 -12 9z"/>
<path d="M732 64 c9 -9 21 -15 27 -13 6 2 -2 10 -17 17 -25 11 -25 11 -10 -4z"/>
<path d="M660 60 c0 -5 5 -10 10 -10 6 0 10 5 10 10 0 6 -4 10 -10 10 -5 0
-10 -4 -10 -10z"/>
</g>
</svg>
